<?xml version="1.0" standalone="no"?>
<!DOCTYPE svg PUBLIC "-//W3C//DTD SVG 1.1//EN" "http://www.w3.org/Graphics/SVG/1.1/DTD/svg11.dtd" >
<svg xmlns="http://www.w3.org/2000/svg">
<metadata>
Created by FontForge 20120731 at Tue Jun  6 09:20:22 2017
 By admin
</metadata>
<defs>
<font id="iconfont" horiz-adv-x="1024" >
  <font-face 
    font-family="iconfont"
    font-weight="500"
    font-stretch="normal"
    units-per-em="1024"
    panose-1="2 0 6 3 0 0 0 0 0 0"
    ascent="896"
    descent="-128"
    x-height="792"
    bbox="-0.583333 -128.303 1028 896"
    underline-thickness="0"
    underline-position="0"
    unicode-range="U+0078-E7A9"
  />
<missing-glyph 
 />
    <glyph glyph-name=".notdef" 
 />
    <glyph glyph-name=".notdef" 
 />
    <glyph glyph-name=".null" horiz-adv-x="0" 
 />
    <glyph glyph-name="nonmarkingreturn" horiz-adv-x="341" 
 />
    <glyph glyph-name="x" unicode="x" horiz-adv-x="1001" 
d="M281 543q-27 -1 -53 -1h-83q-18 0 -36.5 -6t-32.5 -18.5t-23 -32t-9 -45.5v-76h912v41q0 16 -0.5 30t-0.5 18q0 13 -5 29t-17 29.5t-31.5 22.5t-49.5 9h-133v-97h-438v97zM955 310v-52q0 -23 0.5 -52t0.5 -58t-10.5 -47.5t-26 -30t-33 -16t-31.5 -4.5q-14 -1 -29.5 -0.5
t-29.5 0.5h-32l-45 128h-439l-44 -128h-29h-34q-20 0 -45 1q-25 0 -41 9.5t-25.5 23t-13.5 29.5t-4 30v167h911zM163 247q-12 0 -21 -8.5t-9 -21.5t9 -21.5t21 -8.5q13 0 22 8.5t9 21.5t-9 21.5t-22 8.5zM316 123q-8 -26 -14 -48q-5 -19 -10.5 -37t-7.5 -25t-3 -15t1 -14.5
t9.5 -10.5t21.5 -4h37h67h81h80h64h36q23 0 34 12t2 38q-5 13 -9.5 30.5t-9.5 34.5q-5 19 -11 39h-368zM336 498v228q0 11 2.5 23t10 21.5t20.5 15.5t34 6h188q31 0 51.5 -14.5t20.5 -52.5v-227h-327z" />
    <glyph glyph-name="dianshitai" unicode="&#xe677;" 
d="M811 578l39 -39l-230 -123l-22 22l-115 115l-22 22l122 231l39 -39zM812 766q38 -39 38 -94t-39 -94l-189 189l1 1q40 39 95 38.5t94 -40.5zM483 553l115 -115l-2 -2l-344 -316l-92 93l322 339zM810 555v0q-9 0 -15.5 6.5t-6.5 16t7 15.5v1v0q33 32 33 78t-32 78
q-32 33 -78 33.5t-79 -31.5q-7 -7 -16 -7t-15.5 7t-6.5 16t6 16q46 44 110 44h1q65 0 110 -46t44.5 -110t-45.5 -109q0 -1 -1 -1q-6 -7 -16 -7v0zM252 97v0q-10 0 -16 7l-92 93q-7 7 -7 16t7 15l321 339q7 7 17 7q9 0 15.5 -6.5t6.5 -15.5t-6 -15l-307 -324l61 -62l329 301
q6 6 15 6t15.5 -6.5t6.5 -15.5q0 -10 -7 -17l-344 -316q-7 -6 -15 -6v0zM428 361v0q-9 0 -15.5 6.5t-6.5 16t6 15.5l72 71q7 7 16 7t15.5 -6.5t6.5 -16t-6 -16.5l-72 -71q-7 -6 -16 -6v0zM275 -60q-57 0 -96 40q-39 39 -39 94q0 57 40 96q7 7 16 7t15.5 -6.5t6.5 -16
t-7 -16.5q-26 -26 -26 -64q0 -37 25 -63q27 -26 64 -26.5t64 25.5l236 233q7 6 16 6t15.5 -6.5t6.5 -16t-6 -15.5l-237 -233q-39 -38 -94 -38zM748 44v0q-9 0 -15.5 6.5t-6.5 15.5q0 10 7 16q26 27 26 64t-25 64q-27 26 -64 26.5t-64 -25.5q-6 -7 -15 -7q-10 0 -16.5 6.5
t-6.5 16.5q0 9 7 15q40 40 95.5 39.5t94.5 -40.5q39 -39 39 -95t-40 -96q-7 -6 -16 -6v0zM620 394q-9 0 -16 7l-159 158q-6 7 -6 16q0 6 2 11l122 230q7 12 20 12q9 0 16 -6l267 -267q7 -6 7 -16q0 -13 -12 -19l-230 -123q-5 -3 -11 -3v0zM488 579l136 -135l189 101
l-224 224z" />
    <glyph glyph-name="baozhi" unicode="&#xe678;" 
d="M151 53l619 -133l83 133h-702zM977 847l-1 -794l-920 1l1 795zM878 564v175l-726 1l-1 -175zM878 739v-175l-727 1l1 175zM861 222v0l-686 1q-9 0 -15.5 6.5t-6.5 15.5t6.5 15.5t15.5 6.5v0v0l686 -1q9 0 15.5 -6.5t6.5 -15.5t-6.5 -15.5t-15.5 -6.5v0zM878 541v0l-727 1
q-9 0 -15.5 7t-6.5 16v0v175q1 9 7.5 15.5t15.5 6.5v0l726 -1q10 0 16.5 -6.5t6.5 -15.5v0l-1 -175q0 -10 -6.5 -16.5t-15.5 -6.5zM174 587l682 -1v130l-682 1v-130zM860 324v0l-686 1q-9 0 -15.5 6.5t-6.5 15.5t6.5 15.5t15.5 6.5v0v0l686 -1q10 0 16.5 -6.5t6.5 -15.5
t-6.5 -15.5t-16.5 -6.5v0zM859 431v0l-686 1q-9 0 -15.5 7t-6.5 16t6.5 15.5t15.5 6.5v0v0l686 -1q10 0 16.5 -6.5t6.5 -15.5v0q0 -9 -6.5 -16t-16.5 -7zM976 30v0l-920 2q-10 0 -16.5 6.5t-6.5 15.5v0l2 795q0 9 6.5 15.5t15.5 6.5v0l920 -1q10 0 16.5 -6.5t6.5 -16.5v0
l-2 -795q0 -9 -6.5 -15.5t-15.5 -6.5zM78 76l875 -1l2 750l-875 1zM775 -106q-3 0 -5 1l-714 137q-8 1 -13.5 7.5t-5.5 14.5q0 2 1 4q1 8 7.5 13t14.5 5h4l715 -137q7 -2 12.5 -8.5t5.5 -13.5q0 -10 -6.5 -16.5t-15.5 -6.5zM774 -106q-6 0 -11 3q-11 7 -11 20q0 6 3 11
l78 133q7 11 20 11q6 0 11 -3q11 -6 11 -19q0 -6 -3 -11l-78 -134q-7 -11 -19 -11h-1z" />
    <glyph glyph-name="gouwu-2" unicode="&#xe679;" 
d="M979 551l-61 -357h-129v357h190zM789.5 124q34.5 0 58.5 -24.5t24 -58.5t-24 -58t-58.5 -24t-58.5 24t-24 58t24 58.5t58.5 24.5zM699 551h90v-357h-90v357zM608 551h91v-357h-91v357zM608 551v-357h-301l-64 357h365zM453.5 124q34.5 0 58.5 -24.5t24 -58.5t-24 -58
t-58.5 -24t-58.5 24t-24 58t24 58.5t58.5 24.5zM453.5 -64q-43.5 0 -74 31t-30.5 74.5t30.5 74t74 30.5t74 -30.5t30.5 -74t-30.5 -74.5t-74 -31zM453.5 101q-24.5 0 -42.5 -17.5t-18 -42.5t18 -42.5t42.5 -17.5t42.5 17.5t18 42.5t-18 42.5t-42.5 17.5zM789.5 -64
q-43.5 0 -74.5 31t-31 74.5t31 74t74.5 30.5t74 -30.5t30.5 -74t-30.5 -74.5t-74 -31zM789.5 101q-24.5 0 -42.5 -17.5t-18 -42.5t18 -42.5t42.5 -17.5t42.5 17.5t18 42.5t-18 42.5t-42.5 17.5zM918 172h-611q-8 0 -14 5t-8 13l-64 357v4q0 10 6.5 16.5t15.5 6.5h736v0
q9 0 15.5 -6.5t6.5 -16.5v-4l-61 -356q-1 -8 -7.5 -13.5t-14.5 -5.5v0zM326 217h573l53 312h-682zM259 438q-8 0 -14 5t-8 13l-67 345v5q0 8 5 14t13 8h4q8 0 14.5 -5t7.5 -13l67 -345q1 -2 1 -4q0 -10 -6.5 -16.5t-16.5 -6.5v0zM192 783h-151q-9 0 -15.5 6.5t-6.5 16
t6.5 16t15.5 6.5h151q10 0 16.5 -6.5t6.5 -16t-6.5 -16t-16.5 -6.5zM608 172v0q-9 0 -16 6.5t-7 15.5v0v357q0 10 7 16.5t16 6.5t15.5 -6.5t6.5 -16.5v-357q0 -9 -6.5 -15.5t-15.5 -6.5v0zM699 172v0q-10 0 -16.5 6.5t-6.5 15.5v0v357v0q0 10 6.5 16.5t16 6.5t16 -6.5
t6.5 -16.5v0v-357q0 -9 -6.5 -15.5t-15.5 -6.5v0zM789 172v0q-9 0 -15.5 6.5t-6.5 15.5v0v357v0q0 10 6.5 16.5t16 6.5t16 -6.5t6.5 -16.5v0v-357q0 -9 -6.5 -15.5t-16.5 -6.5v0zM370 540q-9 0 -15.5 6.5t-6.5 15.5q0 6 3 11l103 181q7 11 20 11q5 0 10 -3l331 -180
q12 -6 12 -20q0 -9 -6.5 -15.5t-15.5 -6.5q-6 0 -11 3l-312 169l-92 -161q-7 -11 -20 -11v0zM354 360q-8 0 -14 5.5t-8 13.5l-16 99v4q0 8 5.5 14t13.5 8h3q9 0 15 -5.5t7 -13.5l16 -99q1 -2 1 -4q0 -9 -6.5 -15.5t-16.5 -6.5v0z" />
    <glyph glyph-name="chongwu" unicode="&#xe67a;" 
d="M106 791l8 -145l75 -106l158 197l-114 54h-127zM900 812l9 -146l-62 -113l-180 177l108 67zM851 171v-102q0 -33 -23.5 -57t-56.5 -24h-521q-33 0 -56.5 24t-23.5 57v109q0 -33 23.5 -57t56.5 -24h521q33 0 56.5 24t23.5 57v-7zM637 728q97 -40 155 -124q19 -12 39 -70
t20 -123v-233q0 -33 -23.5 -57t-56.5 -24h-521q-33 0 -56.5 24t-23.5 57v233q0 93 45.5 171.5t124 124t171.5 45.5q66 0 126 -24zM721 558v0q0 10 -6.5 16.5t-16.5 6.5v0v0q-10 0 -16.5 -6.5t-6.5 -16.5v0q0 -9 6.5 -16t16.5 -7v0q9 0 16 7t7 16v0zM358 558v0q0 10 -7 16.5
t-16.5 6.5t-16.5 -6.5t-7 -16.5v0q0 -9 7 -16t16.5 -7t16.5 7t7 16zM714.5 574.5q6.5 -6.5 6.5 -16.5v0q0 -9 -7 -16t-16 -7v0q-10 0 -16.5 7t-6.5 16v0q0 10 6.5 16.5t16.5 6.5v0q10 0 16.5 -6.5zM351 575q6 -7 6 -16q0 -10 -7 -17t-16 -7t-16 7t-7 16v0q0 10 7 16.5
t16 6.5v0v0q10 0 17 -6zM334 513v0q-19 0 -32 13t-13 32v0q0 19 13 32.5t32 13.5v0v0q19 0 32.5 -13.5t13.5 -32.5v0q0 -19 -13.5 -32t-32.5 -13zM334 559h-0.5t-0.5 -0.5t0.5 -1l0.5 -0.5v0v0q1 0 1 1v0v1h-1v0zM698 513v0q-19 0 -32.5 13t-13.5 32v0q0 19 13.5 32.5
t32.5 13.5v0q19 0 32 -13.5t13 -32.5v0q0 -19 -13 -32t-32 -13zM698 559v0h-1v-1v0v-0.5t1 -0.5t1 1v0q0 1 -0.5 1h-0.5v0zM587 364v-65q0 -29 -20 -49t-48.5 -20t-48.5 20t-20 49v0v68q37 19 46 30v-105q0 -10 7 -16.5t16 -6.5t15.5 6.5t6.5 16.5v105q21 -21 46 -33z
M658 392q10 0 16.5 -6.5t6.5 -15.5t-6.5 -15.5t-16.5 -6.5q-13 0 -26 2v-51q0 -47 -33 -80t-80 -33t-80 33t-33 80v52q-16 -3 -32 -3q-10 0 -16.5 6.5t-6.5 15.5t6.5 15.5t16.5 6.5q49 0 83.5 35t34.5 84v0q0 9 7 15.5t16 6.5v0h0.5h0.5h0.5h0.5q10 0 16.5 -6.5t6.5 -15.5
q0 -49 34.5 -84t83.5 -35zM587 299v65q-43 21 -68 61l22 -133q0 -10 -6.5 -16.5t-15.5 -6.5t-16 6.5t-7 16.5v105q-9 -11 -46 -30v-68q0 -29 20 -49t48.5 -20t48.5 20t20 49zM926 801q1 0 1 1q0 17 -17 22q-75 18 -148 -0.5t-130 -69.5q-57 21 -121 21h-1v0q-68 0 -132 -25
q-56 50 -129.5 67t-147.5 -4h-0.5t-0.5 -1q-8 -2 -12 -9q-3 -2 -3 -9v2q-16 -75 4.5 -148t74.5 -128q-17 -51 -17 -108v-1v-342q0 -43 30.5 -73t72.5 -30h521q42 0 72.5 30t30.5 73v342v1q0 60 -19 117q51 53 70 125.5t1 146.5zM884 783q12 -56 -0.5 -111t-47.5 -99
q-47 92 -133 146l4 1q-10 11 -68 32q-20 7 -39 12q34 4 89 11t79.5 10t57 3t58.5 -5zM126 773q55 12 109.5 1t99.5 -44q-61 -35 -105.5 -89t-65.5 -121q-11 39 -17 60t-12.5 51.5t-9 51t-2.5 44.5t3 46zM829 69q0 -24 -17 -41t-41 -17h-521q-24 0 -41 17t-17 41v24
q26 -18 58 -18v0h521v0q32 0 58 18v-24zM829 222v-44q0 -24 -17 -41t-41 -17h-521q-24 0 -41 17t-17 41v233q0 87 42.5 160.5t116 116t160.5 42.5v0q62 0 119 -23v0q90 -37 143 -116q19 -12 37.5 -66t18.5 -114v-189z" />
    <glyph glyph-name="kouhong" unicode="&#xe67b;" 
d="M695 745q11 4 57 3t96 -6.5t46 -9.5l-214 -234q-7 -8 -17 -8q-9 0 -15 6l-82 75q-7 6 -7.5 15.5t6.5 16.5zM671 469q12 -10 12.5 -25.5t-9.5 -27.5l-353 -385q-10 -11 -25.5 -12t-26.5 10l-135 123q-11 10 -12 25.5t10 26.5l352 386q11 11 26 11.5t27 -9.5zM294 -3
q-23 0 -40 15l-135 123q-19 17 -19 43v1q0 24 15 41l353 385q17 19 44 19q23 0 40 -16l134 -122q19 -18 20 -43v-2q0 -23 -16 -40l-352 -385q-18 -19 -44 -19v0zM512 579q-7 0 -11 -4l-353 -386q-4 -4 -4 -10v0q1 -7 6 -11l134 -123q4 -4 10 -4v0v0q6 0 11 5l352 385
q4 5 4 10v1q0 7 -5 11l-134 122q-4 4 -10 4v0zM663 468v0q-17 0 -30 12l-82 75q-14 12 -15 32v1q0 17 12 30l130 142q10 11 50 11q45 0 105 -6q28 -2 45 -5q31 -5 37 -18q2 -5 2 -10q0 -9 -7 -15l-214 -234q-13 -15 -33 -15v0zM707 725l-126 -137v0l82 -75v0v0l189 206
q-67 7 -124 7q-14 0 -21 -1zM428 225q-10 0 -16.5 6.5t-6.5 15.5t6 15l168 184q7 7 17 7q9 0 15 -5q7 -7 7 -17q0 -9 -6 -15l-168 -184q-7 -7 -16 -7v0zM361 152q-9 0 -15.5 6.5t-6.5 16.5q0 8 6 15l11 12q7 8 17 8q9 0 15 -6q7 -7 7 -17q0 -8 -6 -15l-11 -12q-7 -8 -17 -8
v0z" />
    <glyph glyph-name="gouwu" unicode="&#xe67c;" 
d="M752 549h83q16 0 27.5 -11.5t11.5 -26.5l25 -428l7 -110q0 -16 -11.5 -27t-27.5 -11h-710q-16 0 -27 11.5t-11 26.5l5 87l27 451q0 15 11 26.5t27 11.5h563zM580 259l66 66l-93 13l-42 83l-40 -84l-93 -15l68 -64l-15 -93l83 45l83 -43zM646 325l-66 -66l17 -92l-83 43
l-83 -45l15 93l-68 64l93 15l40 84l42 -83zM867 -87h-710q-25 0 -43 17.5t-18 42.5v2l32 536q0 25 18 42.5t43 17.5h646q25 0 43 -17.5t18 -42.5l32 -536v-2q0 -25 -18 -42.5t-43 -17.5zM141 -27q0 -7 4.5 -11.5t11.5 -4.5h710q7 0 11.5 4.5t4.5 11.5l-32 536v1v1
q0 6 -4.5 11t-11.5 5h-646q-7 0 -11.5 -5t-4.5 -11v-2l-32 -536v0zM671 451q-9 0 -15.5 6t-6.5 14l-27 325v2v0q0 6 -3 10t-6 4h-201q-4 0 -7 -4t-3 -10v-2l-27 -325q0 -9 -7 -15t-17 -5q-8 1 -14 7.5t-6 14.5v2l26 324q1 24 16.5 41t38.5 17h201q22 0 37.5 -17t16.5 -41
l26 -324v-2q0 -9 -6.5 -15.5t-15.5 -6.5v0zM896 38h-768q-9 0 -15.5 6.5t-6.5 15.5t6.5 15.5t15.5 6.5h768q9 0 15.5 -6.5t6.5 -15.5t-6.5 -15.5t-15.5 -6.5zM753 526q-9 0 -15.5 5.5t-7.5 13.5v1l-19 177h-1v0h-146h-1l-19 -178q-1 -8 -7.5 -13.5t-14.5 -5.5
q-10 0 -16.5 6.5t-6.5 15.5q0 1 1 3v1l19 174q0 17 13.5 29t31.5 12h146q19 0 32 -12t14 -29l19 -175v-3q0 -9 -6.5 -15.5t-15.5 -6.5v0zM431 143v0q-9 0 -15.5 6.5t-6.5 15.5v4l13 80l-59 57q-7 6 -7 16q0 8 5 14.5t13 7.5l81 13l36 74q6 12 20 12q13 0 20 -12l37 -73
l81 -10q8 -2 13.5 -8t5.5 -15t-6 -15l-58 -58l15 -79v-6v0q0 -9 -6.5 -15.5t-15.5 -6.5q-5 0 -10 2l-73 37l-72 -39q-5 -2 -11 -2v0zM426 307l35 -33q7 -7 7 -16v-4l-8 -48l43 23q5 3 11 3q5 0 10 -2l43 -22l-9 47v4q0 10 6 16l34 34l-48 7q-12 1 -17 12l-22 43l-20 -44
q-6 -11 -18 -13zM218 228v0q-9 0 -15.5 6.5t-6.5 15.5v2l2 21q0 9 7 15t17 6q8 -1 14 -7.5t6 -15.5v-1l-1 -22q-1 -8 -7.5 -14t-15.5 -6zM225 312v0q-10 0 -16.5 6.5t-6.5 15.5v2l10 133q1 9 7.5 15t14.5 6q10 0 16.5 -6.5t6.5 -16.5v-1l-10 -133q-1 -9 -7.5 -15t-14.5 -6z
" />
    <glyph glyph-name="jianshen" unicode="&#xe67d;" 
d="M1002 409v-48q0 -10 -7 -17t-17 -7h-68v96h68q10 0 17 -7t7 -17zM910 337v-133q0 -20 -14.5 -34.5t-34.5 -14.5v0q-20 0 -34.5 14.5t-14.5 34.5v362q0 20 14.5 34.5t34.5 14.5t34.5 -14.5t14.5 -34.5v-229zM788 337v-194q0 -20 -14.5 -34.5t-34.5 -14.5v0
q-20 0 -34.5 14.5t-14.5 34.5v484q0 20 14.5 34.5t34.5 14.5t34.5 -14.5t14.5 -34.5v-290zM334 433h356v-96h-356v96zM334 337v-194q0 -20 -14 -34.5t-34.5 -14.5t-34.5 14.5t-14 34.5v0v484q0 20 14 34.5t34.5 14.5t34.5 -14.5t14 -34.5v0v-290zM212 337v-133
q0 -20 -14 -34.5t-34.5 -14.5t-34.5 14.5t-14 34.5v0v362q0 20 14 34.5t34.5 14.5t34.5 -14.5t14 -34.5v-229zM115 433v-96h-66q-10 0 -17 7t-7 17v48q0 10 7 17t17 7h66zM690 315h-356q-9 0 -15.5 6.5t-6.5 15.5t6.5 15.5t15.5 6.5h356q10 0 16.5 -6.5t6.5 -15.5
t-6.5 -15.5t-16.5 -6.5zM812 315h-24q-9 0 -15.5 6.5t-6.5 15.5t6.5 15.5t15.5 6.5h24q9 0 16 -6.5t7 -15.5t-7 -15.5t-16 -6.5zM978 315h-68q-9 0 -15.5 6.5t-6.5 15.5t6.5 15.5t15.5 6.5h68q2 0 2 2v48q0 2 -2 2v0h-68q-9 0 -15.5 6.5t-6.5 15.5t6.5 15.5t15.5 6.5h68
q19 0 33 -13.5t14 -32.5v-48q0 -19 -14 -32.5t-33 -13.5zM690 411h-356q-9 0 -15.5 6.5t-6.5 15.5t6.5 15.5t15.5 6.5h356q10 0 16.5 -6.5t6.5 -15.5t-6.5 -15.5t-16.5 -6.5zM115 315h-66q-19 0 -32.5 13.5t-13.5 32.5v48q0 19 13.5 32.5t32.5 13.5h66q9 0 15.5 -6.5
t6.5 -15.5t-6.5 -15.5t-15.5 -6.5h-66q-2 0 -2 -2v0v-48q0 -2 2 -2h66q9 0 15.5 -6.5t6.5 -15.5t-6.5 -15.5t-15.5 -6.5zM285 72v0q-29 0 -50 20.5t-21 50.5v0v484q0 29 21 50t50.5 21t50.5 -21t21 -50v-484q0 -30 -21 -50.5t-51 -20.5zM285 653q-11 0 -18.5 -7.5
t-7.5 -18.5v-484q0 -11 7.5 -19t18.5 -8v0q11 0 19 8t8 19v484q0 11 -8 18.5t-19 7.5zM164 133h-1q-29 0 -50 20.5t-21 50.5v0v362q0 29 21 50t50.5 21t50.5 -21t21 -50v-362q0 -30 -21 -50.5t-50 -20.5zM164 592q-11 0 -19 -7.5t-8 -18.5v-362q0 -11 8 -19t18 -8h1
q10 0 18 8t8 19v362q0 11 -7.5 18.5t-18.5 7.5zM739.5 72q-29.5 0 -50.5 20.5t-21 50.5v484v0q0 30 21 50.5t50.5 20.5t50 -21t20.5 -50v-484v0q0 -30 -20.5 -50.5t-50 -20.5zM739 653q-11 0 -18.5 -7.5t-7.5 -18.5v0v-484q0 -11 7.5 -19t18.5 -8v0q11 0 19 8t8 19v0v484
q0 11 -8 18.5t-19 7.5zM861.5 133q-29.5 0 -50.5 20.5t-21 50.5v362q0 29 20.5 50t50.5 21v0q30 0 50.5 -21t20.5 -50v-362q0 -30 -20.5 -50.5t-50 -20.5zM861 592v0q-11 0 -18.5 -7.5t-7.5 -18.5v0v-362q0 -11 7.5 -19t18.5 -8v0q11 0 19 8t8 19v0v362q0 11 -8 18.5
t-19 7.5z" />
    <glyph glyph-name="maikefeng" unicode="&#xe67e;" 
d="M794.5 742.5q40.5 -41.5 48 -99.5t-21.5 -106l-232 236q49 28 107 19.5t98.5 -50zM589 773l232 -236q-12 -21 -29 -38q-33 -32 -77 -44l-193 252q12 21 29.5 38t37.5 28zM522 707l232 -236q-64 -35 -134 -13q-41 13 -71 44q-40 40 -48 95q-6 14 -0.5 47.5t21.5 62.5z
M620 458v0l-354 -326l-92 94l332 348q16 -54 61 -88q2 -5 18.5 -13.5t34.5 -14.5zM672 428v0q-31 0 -60 9q-45 14 -79 49q-45 45 -54 108q-7 16 -1 54t25 70q26 46 71 72q-11 -7 -13 -8l18 11q43 23 93 23q81 0 139 -58q45 -46 53.5 -111t-23.5 -121q-27 -46 -72 -72l4 1
q-13 -11 -53 -22h1q-22 -5 -49 -5zM672 772q-39 0 -72 -18q-18 -10 -33 -25q-29 -28 -40 -67q-3 0 -5 -12t-0.5 -32t6.5 -38q14 -47 53 -77q1 -3 15.5 -11t30.5 -13q21 -7 45 -7v0q38 0 72 19q35 19 56 53v-1q10 16 16 39q8 14 9 37t-11.5 54t-34.5 54q-44 45 -107 45z
M783 435v0q-25 0 -43 18l-2 2l-234 239q-17 18 -17 43t18 42l13 13q17 17 42 17v0q26 0 43 -18l2 -2l234 -239q18 -18 17.5 -43t-18.5 -42l-12 -13q-18 -17 -43 -17v0zM560 764v0q-6 0 -11 -4l-13 -12q-4 -5 -4 -11.5t4 -11.5l2 -2l234 -238q5 -5 11 -5v0v0v0q7 0 11 4
l13 13q11 11 0 22l-2 2l-234 239q-4 4 -11 4v0zM266 110v0q-10 0 -16 7l-92 93q-6 7 -6 16t6 15l332 348q7 7 16 7t16 -6.5t7 -15.5t-7 -16l-317 -332l61 -63l339 311q6 6 15 6t15.5 -6.5t6.5 -15.5q0 -10 -7 -17l-354 -325q-7 -6 -15 -6v0zM416 349v0q-10 0 -16.5 6.5
t-6.5 15.5q0 10 7 16l72 71q7 6 16 6t16 -6.5t7 -15.5t-7 -16l-73 -71q-6 -6 -15 -6v0zM287 -47h-1q-56 1 -95 41q-38 39 -38 94q0 57 40 96q7 7 16 7t15.5 -7t6.5 -16t-7 -16q-27 -26 -27 -64q0 -37 26 -63q26 -27 63.5 -27t63.5 26l237 232q7 6 16 6t15.5 -6.5t6.5 -16
t-6 -15.5l-237 -232q-40 -39 -95 -39v0zM761 57q-9 0 -15.5 6.5t-6.5 16t6 15.5q27 27 27 64v1q0 36 -25 62q-26 27 -64 27h-1q-36 0 -63 -25q-6 -6 -15 -6t-15.5 6.5t-6.5 15.5t6 16q39 38 94 38h2q56 0 95 -40q38 -40 38 -95q0 -56 -40 -96q-7 -6 -16 -6v0z" />
    <glyph glyph-name="qiandai" unicode="&#xe67f;" 
d="M792 761q29 -19 3.5 -62t-91.5 -85q-49 -32 -101 -49.5t-89 -16.5h-1.5h-2h-1.5h-1q-37 -1 -89 16.5t-102 49.5q-65 42 -91 85t3 62q25 15 77 5.5t110 -39.5q8 47 34.5 77.5t60.5 30.5t60.5 -30.5t34.5 -77.5q58 30 109.5 39.5t76.5 -5.5zM511 546q101 0 186.5 -53
t135 -143.5t49.5 -197.5q0 -40 -6.5 -71.5t-23 -54t-32.5 -38.5t-47 -25.5t-52.5 -15.5t-64.5 -8.5t-67.5 -3t-75.5 -0.5h-2h-3q-50 0 -75 0.5t-67.5 3t-64.5 8.5t-53 15.5t-46.5 25.5t-32 38.5t-23 54t-6.5 71.5q0 107 49.5 197.5t135 143.5t186.5 53zM511 525h-3v0h-4
q-42 0 -95 19t-104 51q-53 34 -83 71t-30 68q0 29 25 45q20 13 54 13q56 0 129 -33q15 45 45 72t66 27t66 -27t44 -72q74 33 130 33q33 0 54 -13q24 -16 24 -45q0 -31 -30 -68t-83 -71q-50 -32 -103 -51t-95 -19v0h-4v0h-3zM508 570h1h2h1h1h1h4q35 0 82.5 17t91.5 46
q46 30 69.5 58t23.5 43q0 5 -5 8q-9 6 -29 6q-57 0 -135 -40q-4 -3 -10 -3q-8 0 -14.5 5.5t-7.5 12.5q-7 39 -27.5 64.5t-45.5 25.5t-46 -25.5t-27 -63.5q-2 -8 -8 -13.5t-15 -5.5q-5 0 -10 3q-78 40 -134 40q-21 0 -30 -6q-4 -3 -4 -8q0 -15 23 -43t70 -58q44 -29 91.5 -46
t82.5 -17h3h1zM516 -87h-10q-67 0 -102.5 1t-84 8t-81.5 20q-121 50 -121 210q0 113 53 209t143.5 151.5t197.5 55.5t197.5 -55.5t143 -151.5t52.5 -209q0 -160 -121 -210q-33 -13 -81.5 -20t-83.5 -8t-102 -1zM508 -42h8q64 0 97.5 1t78.5 6.5t74 18.5q49 19 71.5 59.5
t22.5 108.5q0 101 -47 186.5t-127.5 135t-175 49.5t-175 -49.5t-127 -135t-46.5 -186.5q0 -68 22.5 -108.5t70.5 -59.5q29 -13 74.5 -18.5t79 -6.5t97.5 -1h2zM618 271h-214v0q-9 0 -15.5 6.5t-6.5 15.5t6.5 15.5t15.5 6.5v0h214q9 0 15.5 -6.5t6.5 -15.5t-6.5 -15.5
t-15.5 -6.5zM618 171h-214v0q-9 0 -15.5 6.5t-6.5 15.5t6.5 15.5t15.5 6.5v0h214q9 0 15.5 -6.5t6.5 -15.5t-6.5 -15.5t-15.5 -6.5zM511 60v0q-9 0 -16 7t-7 16v0v208q0 10 7 16.5t16 6.5t15.5 -6.5t6.5 -16.5v-208q0 -9 -6.5 -16t-15.5 -7v0zM512 279v0q-9 0 -15 6v0
l-100 82q-8 7 -8 17t6.5 16.5t16.5 6.5q8 0 14 -5l100 -83q8 -7 8 -17q0 -9 -6.5 -16t-15.5 -7v0zM510 279v0q-9 0 -15.5 7t-6.5 16q0 11 8 17l1 1l99 82q6 5 14 5q9 0 16 -6.5t7 -16.5t-9 -17l-100 -83q-6 -5 -14 -5v0z" />
    <glyph glyph-name="jiandao" unicode="&#xe680;" 
d="M882 790q34 -19 44 -56.5t-9 -71.5l-186 -322q-20 -33 -57.5 -43t-70.5 9l-32 19l279 484zM850 809l-302 -524l-39 67l283 490l58 -33v0zM652 107q15 20 36 32q41 24 86.5 11.5t69.5 -53.5t11.5 -86.5t-53.5 -69.5t-86.5 -11.5t-69.5 53.5q-1 2 -3 5q-15 29 -12 61t21 58
zM555 274l97 -167q-18 -26 -21 -58t12 -61l-214 369l-260 452l57 33zM471 285l40 -68l-4 -2l-133 -232h-1q17 31 15 65t-23 61l106 176v0zM429 357l19 -32l-32 -19q-34 -19 -71.5 -9t-56.5 43l-186 322q-19 34 -9 71.5t44 56.5l32 19zM365 109q21 -27 23 -61t-15 -65v0
q-24 -41 -69.5 -53.5t-86.5 11.5t-53.5 69.5t11.5 86.5t69.5 53.5t86.5 -11.5q20 -12 34 -30zM369 271q-31 0 -58 15.5t-42 42.5l-186 322q-24 42 -11.5 88.5t53.5 70.5l32 18q6 3 12 3q12 0 19 -11l280 -484q3 -5 3 -11q0 -13 -12 -20l-32 -18q-26 -16 -58 -16v0zM160 778
l-12 -7q-29 -17 -35 -49q-1 0 -1 -13q0 -19 10 -36l185 -321q21 -36 62 -36q19 0 36 9l13 8zM646 -39v0q-13 0 -19 11l-3 4l-214 370q-3 5 -3 11q0 10 6.5 16.5t15.5 6.5q13 0 19 -11l217 -375q3 -5 3 -11q0 -9 -6.5 -15.5t-15.5 -6.5v0zM745 -97q-37 0 -68.5 18.5
t-49.5 50.5q-13 22 -18 48q-4 4 -4.5 18t7.5 38.5t22 43.5q17 24 43 38q31 19 68 19q36 0 68 -18.5t50 -50.5q29 -49 14 -103.5t-64 -82.5q-31 -19 -68 -19v0zM745 132q-25 0 -47 -13q-25 -14 -37 -41q-9 -10 -9 -33t11 -47l2 -4q13 -21 34 -33.5t46 -12.5t46 12
q33 19 43 56t-9 70q-13 21 -34.5 33.5t-45.5 12.5zM560 242v0q-13 0 -19 11l-334 578q-3 5 -3 11q0 9 6.5 16t15.5 7q13 0 20 -12l334 -578q3 -5 3 -11q0 -13 -11 -19q-6 -3 -12 -3v0zM652 85v0q-12 0 -19 11l-111 189q-3 6 -3 12q0 13 11 19q5 3 11 3q13 0 19 -11l112 -190
q3 -5 3 -11q0 -9 -6.5 -15.5t-16.5 -6.5zM169 786v0q-13 0 -20 12q-3 5 -3 11q0 13 11 19l58 33q5 3 11 3q13 0 20 -11q3 -5 3 -11q0 -13 -11 -19l-58 -34q-5 -3 -11 -3zM649 271v0q-31 0 -58 16l-31 18q-12 7 -12 20q0 6 3 11q7 11 19 11q-3 5 -3 11t3 11l261 451
q6 11 19 11q6 0 12 -3l31 -18q42 -24 54.5 -70.5t-11.5 -88.5l-186 -322q-16 -27 -43 -42.5t-58 -15.5zM596 336l18 -11q26 -14 54.5 -6.5t42.5 33.5l186 321q15 26 7.5 54.5t-33.5 43.5l-13 7l-249 -432q-5 -9 -15 -10h2zM374 -39q-10 0 -16.5 6.5t-6.5 15.5q0 6 3 11
l134 232q6 11 19 11q9 0 16 -6.5t7 -15.5q0 -7 -3 -12l-134 -231q-7 -11 -19 -11v0v0zM548 263q-9 0 -15.5 6.5t-6.5 15.5q0 6 3 11l41 73q7 10 19 10q10 0 16.5 -6.5t6.5 -15.5q0 -6 -3 -11l-42 -72q-6 -11 -19 -11v0zM274 -97q-37 0 -69 19q-48 28 -63 82.5t14 103.5
q18 32 50 50.5t68 18.5q37 0 69 -19q37 -22 55 -60l1 -1.5t2.5 -4t2.5 -7t2.5 -9.5t2 -10.5t1.5 -12.5t1 -13q0 -37 -18 -68q-2 -4 -6 -7q-14 -27 -45.5 -44.5t-67.5 -17.5zM274 132q-25 0 -46 -12.5t-34 -33.5q-19 -33 -9 -70t43 -56q21 -12 46 -12q24 0 45.5 12.5
t33.5 33.5h1q12 21 12 46q0 31 -19 55q-17 23 -44 32l-20 4q-5 1 -9 1v0zM509 330q-9 0 -15.5 6.5t-6.5 15.5q0 6 3 11l283 490q7 11 19 11q10 0 16.5 -6.5t6.5 -15.5q0 -6 -3 -11l-283 -490q-7 -11 -20 -11v0zM365 86q-9 0 -15.5 6.5t-6.5 16.5q0 6 3 11l106 177
q6 10 19 10q9 0 15.5 -6.5t6.5 -15.5q0 -6 -3 -12l-105 -176q-7 -11 -20 -11v0zM850 786v0q-6 0 -11 3l-58 34q-11 6 -11 19q0 9 7 15.5t16 6.5q6 0 11 -3l57 -33q11 -6 11 -19q0 -9 -6.5 -16t-15.5 -7v0z" />
    <glyph glyph-name="weixiu" unicode="&#xe681;" 
d="M763 -88h-31q-10 0 -17.5 7.5t-7.5 17.5v328q0 11 7.5 18.5t17.5 7.5h88q10 0 17.5 -7.5t7.5 -18.5v-328q0 -10 -7.5 -17.5t-17.5 -7.5h-57zM820 -111h-88q-20 0 -34 14t-14 34v328q0 20 14 34t34 14h88q19 0 33 -14t14 -34v-328q0 -20 -14 -34t-33 -14zM732 269v0
q-3 0 -3 -4v0v-328q0 -3 3 -3v0h88v0q3 0 3 3v0v328q0 4 -3 4v0h-88zM776 269v0q-9 0 -16 6.5t-7 15.5v0v411q0 9 7 15.5t16 6.5t15.5 -6.5t6.5 -15.5v-411q0 -9 -6.5 -15.5t-15.5 -6.5v0zM798 679h-45v0q-9 0 -15.5 6.5t-6.5 16.5v149q0 10 6.5 16.5t15.5 6.5v0h45v0
q9 0 16 -6.5t7 -16.5v-149q0 -10 -7 -16.5t-16 -6.5v0zM491 812q60 -52 60 -132v0q0 -73 -51.5 -124.5t-124 -51.5t-124 51.5t-51.5 124.5q0 80 60 132v-145q0 -10 6.5 -16.5t16.5 -6.5h186q9 0 15.5 6.5t6.5 16.5v145zM398 561v12q0 10 -6.5 16.5t-16 6.5t-16 -6.5
t-6.5 -16.5v-12q0 -10 6.5 -16.5t16 -6.5t16 6.5t6.5 16.5zM404 462l12 -528h-81l12 528q15 -2 29 -2t28 2zM479 874q54 -28 85.5 -80.5t31.5 -113.5q0 -71 -41 -128t-106 -80l12 -560v0q0 -10 -6.5 -16.5t-15.5 -6.5v0h-126q-10 0 -16 7q-7 6 -7 16v0l12 560
q-65 23 -106 80t-41 128q0 61 31.5 113.5t85.5 80.5q5 3 11 3q13 0 19 -12q3 -5 3 -11v-1v-164h141v164v1q0 6 3 11q6 12 20 12q5 0 10 -3v0zM551 680q0 80 -60 132v-145q0 -10 -6.5 -16.5t-15.5 -6.5h-186q-10 0 -16.5 6.5t-6.5 16.5v145q-60 -52 -60 -132v0
q0 -73 51.5 -124.5t124 -51.5t124 51.5t51.5 124.5zM416 -66l-12 528q-14 -2 -28 -2t-29 2l-12 -528h81zM398 573v-12q0 -10 -6.5 -16.5t-16 -6.5t-16 6.5t-6.5 16.5v12q0 10 6.5 16.5t16 6.5t16 -6.5t6.5 -16.5zM763 -111v0q-9 0 -15.5 6.5t-6.5 16.5v0v271q0 10 6.5 16.5
t15.5 6.5t15.5 -6.5t6.5 -16.5v-271q0 -10 -6.5 -16.5t-15.5 -6.5v0z" />
    <glyph glyph-name="shubiao" unicode="&#xe682;" 
d="M751 749q61 -70 61 -163q0 -54 -22.5 -104t-65.5 -86l-140 -121q22 19 22 57q0 42 -26.5 98t-72.5 110l59 51q13 -15 32 -15q15 0 27 10l61 53q15 12 15 31v0v0q0 16 -11 27zM751 749l-60 -52q-13 15 -32 15q-15 0 -27 -10l-61 -53q-15 -12 -15 -31v0v0q0 -16 10 -27
l-59 -51q-68 78 -141 112t-109 4l140 120q79 68 182.5 60t171.5 -87zM691 697q10 -11 10 -27v0v0q0 -19 -15 -31l-61 -53q-12 -10 -27 -10q-19 0 -32 15q-10 11 -10 27v0v0q0 19 15 31l61 53q12 10 27 10q19 0 32 -15v0zM583 332q0 -28 -13 -40v0h-1l-28 -25
q-72 -62 -166.5 -54.5t-156.5 78.5q-55 64 -55 149q0 50 21 95.5t59 78.5l29 25v0q26 22 90.5 -9.5t127.5 -104.5q43 -49 68 -102t25 -91zM768 764q66 -77 66 -178q0 -60 -25 -114t-70 -93l-139 -120q-1 0 -1 -1l-29 -25q-77 -66 -178 -66q-57 0 -110 23t-93 67
q-36 -12 -58.5 -43.5t-22.5 -69.5q0 -17 5 -33q14 -48 57 -72t90 -10l488 195q8 3 16.5 -0.5t12 -12t0 -17t-12.5 -12.5l-488 -195q-1 -1 -2 -1q-23 -6 -46 -6q-54 0 -98.5 32.5t-59.5 85.5q-7 23 -7 46q0 49 27 90t71 60q-43 66 -43 146q0 60 25 114.5t71 93.5l169 145
q85 74 198 65.5t187 -94.5v0v0zM789 586q0 72 -41 131l-29 -25q4 -10 4 -22v0q0 -29 -22 -48l-62 -53q-17 -15 -41 -15q-17 0 -31 8l-29 -25q84 -105 90 -195l82 71q37 32 58 77t21 96v0zM690 726l29 25q-67 63 -158 63q-85 0 -149 -55l-82 -71q22 -4 46 -15
q68 -32 133 -102l29 25q-4 10 -4 22q0 29 22 48l61 53q18 15 42 15q16 0 31 -8zM678 670q0 7 -4 13q-6 7 -15 7q-7 0 -12 -5l-62 -53q-6 -6 -6 -14q0 -7 4 -13q6 -6 15 -6q7 -1 12 4l62 53q6 6 6 14zM570 292q13 12 13 40q0 38 -25 91t-68 102q-63 73 -127.5 104.5
t-90.5 9.5v0l-29 -25q-38 -33 -59 -78t-21 -96v0q0 -84 55 -149q62 -71 156.5 -78.5t166.5 54.5l29 25v0zM836 -93v0q-9 0 -15.5 6.5t-6.5 15.5q0 17 16 22q38 11 62 43t24 72q0 17 -5 33q-15 54 -66 76q-16 11 -49 11q-17 0 -34 -5q-2 -1 -5 -1q-9 0 -15.5 6.5t-6.5 16.5
q0 16 15 21q66 19 125.5 -14t78.5 -98q7 -22 7 -46q0 -55 -33 -99t-86 -59q-3 -1 -6 -1v0z" />
    <glyph glyph-name="shoubing" unicode="&#xe683;" 
d="M941.5 326q58.5 -110 55 -211.5t-67.5 -135.5q-60 -32 -141.5 15t-141.5 147q-66 -11 -136.5 -11t-136.5 11q-59 -100 -141 -147t-142 -15q-64 34 -67.5 135.5t55 211.5t145 163.5t150.5 19.5q35 -19 53 -62q41 4 83.5 4t84.5 -4q17 43 52 62q64 34 150.5 -19.5
t145 -163.5zM883 298.5q0 16.5 -11.5 28t-28 11.5t-28 -11.5t-11.5 -28t11.5 -28t28 -11.5t28 11.5t11.5 28zM723 298.5q0 16.5 -11.5 28t-28 11.5t-28 -11.5t-11.5 -28t11.5 -28t28 -11.5t28 11.5t11.5 28zM364 266v68h-72v72h-68v-72h-71v-68h71v-72h68v72h72zM843.5 338
q16.5 0 28 -11.5t11.5 -28t-11.5 -28t-28 -11.5t-28 11.5t-11.5 28t11.5 28t28 11.5zM683.5 338q16.5 0 28 -11.5t11.5 -28t-11.5 -28t-28 -11.5t-28 11.5t-11.5 28t11.5 28t28 11.5zM364 334v-68h-72v-72h-68v72h-71v68h71v72h68v-72h72zM878 -56v0q-62 0 -127.5 47
t-115.5 125q-61 -9 -125.5 -9t-125.5 9q-50 -78 -115.5 -125t-126.5 -47q-34 0 -63 15q-75 40 -79 155q-4 108 58 223q50 93 122.5 150t140.5 57q34 0 62 -15q36 -19 56 -58q33 2 71 2q36 0 73 -3q15 39 53 59q28 15 62 15q68 0 141 -57t122 -150q62 -115 58 -223
q-4 -115 -79 -155q-28 -15 -62 -15zM646 163q13 0 19 -11q44 -73 102.5 -118t110.5 -45v0q22 0 41 10q54 29 55 123t-52 194q-44 81 -106 132t-118 51q-23 0 -41 -10q-28 -15 -43 -50q-5 -14 -20 -14h-3q-81 8 -163 0h-2q-15 0 -21 13q-15 36 -43 51q-18 10 -41 10
q-55 0 -117.5 -51t-106.5 -132q-53 -100 -52 -194t55 -123q19 -10 42 -10q51 0 109.5 45t102.5 118q6 11 19 11h4q64 -11 133 -11t132 11h4zM292 171h-68q-9 0 -15.5 7t-6.5 16v0v49h-49q-10 0 -16.5 6.5t-6.5 16.5v0v68q0 9 6.5 15.5t16.5 6.5v0h49v50q0 9 6.5 15.5
t15.5 6.5h68v0q10 0 16.5 -6.5t6.5 -15.5v0v-50h49v0q9 0 16 -6.5t7 -15.5v0v-68q0 -10 -7 -16.5t-16 -6.5v0h-49v-49q0 -9 -6.5 -16t-16.5 -7v0zM247 216h23v50q0 9 6.5 15.5t15.5 6.5h50v23h-50v0q-9 0 -15.5 6.5t-6.5 16.5v0v49h-23v-49q0 -10 -6.5 -16.5t-16.5 -6.5v0
h-49v-23h49q10 0 16.5 -6.5t6.5 -15.5v0v-50zM683.5 237q-25.5 0 -43.5 18t-18 43.5t18 44t43.5 18.5t44 -18.5t18.5 -44t-18.5 -43.5t-44 -18zM683.5 316q-7.5 0 -12.5 -5t-5 -12.5t5 -12.5t12.5 -5t12.5 5t5 12.5t-5 12.5t-12.5 5zM843.5 237q-25.5 0 -44 18t-18.5 43.5
t18.5 44t44 18.5t44 -18.5t18.5 -44t-18.5 -43.5t-44 -18zM843.5 316q-7.5 0 -12.5 -5t-5 -12.5t5 -12.5t12.5 -5t12.5 5t5 12.5t-5 12.5t-12.5 5zM510 451v0q-10 0 -16.5 6.5t-6.5 15.5q0 72 50.5 122.5t122.5 50.5h166q9 0 15.5 -6.5t6.5 -16t-6.5 -16t-15.5 -6.5h-166
q-53 0 -90.5 -37.5t-37.5 -90.5v0q0 -9 -6.5 -15.5t-15.5 -6.5v0zM819 601q-9 0 -15.5 6.5t-6.5 16t6.5 16t15.5 6.5q52 0 78 21q21 17 21 44q0 31 -26 48.5t-73 17.5h-389q-10 0 -16.5 6.5t-6.5 15.5t6.5 15.5t16.5 6.5h389q73 0 108.5 -33t35.5 -77q0 -49 -38 -79
q-39 -31 -106 -31z" />
    <glyph glyph-name="yao-2" unicode="&#xe684;" 
d="M385 502l243 -243l-233 -233q-50 -50 -121.5 -50t-121.5 50.5t-50 121.5t50 121zM847 721q44 -44 44 -105.5t-44 -105.5l-219 -219l-211 211l219 219q43 44 105 44t106 -44zM793 678q3 9 -1 17.5t-13 11.5q-20 7 -43 7q-19 0 -37 -5q-15 -5 -15 -21q0 -3 1 -6
q2 -9 10 -13.5t17 -2.5q27 7 53 -2q3 -1 7 -1q16 0 21 15zM641 611q7 7 7 16.5t-6.5 16t-16 6.5t-15.5 -7l-94 -94q-7 -7 -7 -16t6.5 -15.5t16 -6.5t15.5 6zM878.5 752.5q56.5 -56.5 56.5 -137t-57 -137.5l-467 -468q-57 -56 -137.5 -56t-137.5 56.5t-57 137t57 137.5
l468 468q57 56 137.5 56t137 -56.5zM847 510q44 44 44 105.5t-44 105.5t-106 44t-105 -44l-219 -219l211 -211zM379 42l217 217l-211 211l-217 -217q-44 -43 -44 -105t44 -106t105.5 -44t105.5 44v0zM779 707q9 -3 13 -11.5t1 -17.5q-5 -15 -21 -15q-4 0 -7 1q-26 9 -53 2
q-9 -2 -17 2.5t-10 13.5q-1 3 -1 6q0 17 16 21q40 11 79 -2zM641.5 643.5q6.5 -6.5 6.5 -16t-7 -16.5l-94 -94q-6 -6 -15.5 -6t-16 6.5t-6.5 15.5t7 16l94 94q6 7 15.5 7t16 -6.5z" />
    <glyph glyph-name="xiyi" unicode="&#xe685;" 
d="M599 316h176v-303h-176v303zM775 316h-176q0 35 24 60.5t58 27.5h6q36 0 62 -25.5t26 -62.5zM681 404v0q-34 -2 -58 -27.5t-24 -60.5v-396h-358v396q0 37 25.5 62.5t62.5 25.5h352zM509 674v0q-9 0 -15.5 6.5t-6.5 16t6.5 16t15.5 6.5v0v0q21 0 36.5 15t15.5 36.5
t-15.5 36.5t-36.5 15v0v0q-22 0 -37 -15t-15 -36v0q0 -10 -6.5 -16.5t-15.5 -6.5v0v0q-9 0 -15.5 6.5t-6.5 16.5v0q0 39 28 67.5t68 28.5v0q40 0 68 -28.5t28 -68t-28 -68t-68 -28.5zM508 580v0q-9 0 -15.5 6.5t-6.5 15.5v0v94q0 10 6.5 16.5t15.5 6.5v0v0q9 0 15.5 -6.5
t6.5 -16.5v0v-94q0 -9 -6.5 -15.5t-15.5 -6.5v0zM982 277v0q-7 0 -12 4l-463 294l-461 -293q-5 -4 -12 -4q-9 0 -15.5 6.5t-6.5 16.5q0 12 10 18l473 302q6 3 12.5 3t11.5 -3l475 -302q10 -7 10 -19q0 -9 -6.5 -16t-15.5 -7v0zM56 298v0q-10 0 -16.5 6.5t-6.5 15.5v0v95
q0 9 6.5 15.5t16.5 6.5v0v0q9 0 15.5 -6.5t6.5 -15.5v0v-95q0 -9 -6.5 -15.5t-15.5 -6.5v0zM953 299v0q-9 0 -15.5 7t-6.5 16v0v94q0 10 6.5 16.5t15.5 6.5v0v0q9 0 15.5 -6.5t6.5 -16.5v0v-94q0 -9 -6.5 -16t-15.5 -7v0zM681 382h-347q-9 0 -15.5 6.5t-6.5 15.5t6.5 16
t15.5 7h347q10 0 16.5 -7t6.5 -16t-6.5 -15.5t-16.5 -6.5zM599 -103v0q-9 0 -15.5 7t-6.5 16v0v396q0 44 30 76t73 34q3 1 7 1v0q46 0 78 -32.5t32 -78.5v-303q0 -10 -6.5 -16.5t-15.5 -6.5t-16 6.5t-7 16.5v303v0q0 27 -19 46.5t-46 19.5h-4q-26 -2 -44 -21t-18 -45v-396
q0 -9 -6.5 -16t-15.5 -7zM599 -103h-355v0q-9 0 -15.5 7t-6.5 16t6.5 15.5t15.5 6.5v0h355q9 0 15.5 -6.5t6.5 -15.5t-6.5 -16t-15.5 -7zM775 -10h-176q-9 0 -15.5 6.5t-6.5 16t6.5 16t15.5 6.5h176q9 0 15.5 -6.5t6.5 -16t-6.5 -16t-15.5 -6.5zM241 -103q-9 0 -15.5 7
t-6.5 16v0v396q0 46 32 78.5t78 32.5q9 0 15.5 -7t6.5 -16t-6.5 -15.5t-15.5 -6.5q-27 0 -46.5 -19.5t-19.5 -46.5v-396q0 -9 -6.5 -16t-15.5 -7v0zM946 294h-347v0q-9 0 -15.5 6.5t-6.5 16t6.5 16t15.5 6.5v0h347q10 0 16.5 -6.5t6.5 -16t-6.5 -16t-16.5 -6.5zM241 294
h-184v0q-10 0 -16.5 6.5t-6.5 16t6.5 16t16.5 6.5v0h184q9 0 15.5 -6.5t6.5 -16t-6.5 -16t-15.5 -6.5z" />
    <glyph glyph-name="yao" unicode="&#xe686;" 
d="M813 530v-607h-608v607h608zM699 160v123h-130v130h-123v-130h-130v-123h130v-130h123v130h130zM813 531h-608l135 122h338zM699 283v-123h-130v-130h-123v130h-130v123h130v130h123v-130h130zM340 838h338v-123h-338v123zM813 -100h-608q-9 0 -16 6.5t-7 15.5v0v608
q0 10 7 16.5t16 6.5v0h608v0q9 0 15.5 -6.5t6.5 -16.5v0v-608v0q0 -9 -6.5 -15.5t-15.5 -6.5v0zM227 -55h563v563h-563v-563zM813 508h-608v0q-9 0 -16 7t-7 16q0 10 8 16l135 123q6 5 15 5v0h338q8 0 15 -5l135 -123q7 -6 7 -16q0 -9 -6.5 -16t-15.5 -7zM263 553h492
l-86 78h-321zM678 693h-338v0q-10 0 -16.5 6.5t-6.5 15.5v123q0 9 6.5 15.5t16.5 6.5v0h338v0q9 0 15.5 -6.5t6.5 -15.5v-123q0 -9 -6.5 -15.5t-15.5 -6.5v0zM362 738h293v77h-293v-77zM569 8h-123v0q-9 0 -15.5 6.5t-6.5 15.5v0v107h-108v0q-9 0 -15.5 7t-6.5 16v0v123
q0 9 6.5 15.5t15.5 6.5v0h108v108q0 9 6.5 15.5t15.5 6.5v0h123v0q9 0 15.5 -6.5t6.5 -15.5v0v-108h108v0q9 0 15.5 -6.5t6.5 -15.5v0v-123q0 -9 -6.5 -16t-15.5 -7v0h-108v-107q0 -9 -6.5 -15.5t-15.5 -6.5v0zM468 52h79v108q0 9 6.5 15.5t15.5 6.5v0h108v78h-108v0
q-9 0 -15.5 7t-6.5 16v0v107h-79v-107q0 -9 -6.5 -16t-15.5 -7v0h-108v-78h108v0q9 0 15.5 -6.5t6.5 -15.5v0v-108z" />
    <glyph glyph-name="tushu" unicode="&#xe687;" 
d="M824 665l-573 3l-66 19l1 -720l53 -42h591zM737 841v-176h-463q-37 0 -62.5 26t-25.5 62t25.5 62t62.5 26h463zM623 571h113v-343h-113v343zM830 643h-556q-46 0 -78 32t-32 78t32 78t78 32h463q10 0 16.5 -6.5t6.5 -15.5t-6.5 -15.5t-16.5 -6.5h-463q-27 0 -46.5 -19.5
t-19.5 -46.5v0q0 -27 19.5 -46.5t46.5 -19.5h556q9 0 15.5 -6.5t6.5 -15.5t-6.5 -15.5t-15.5 -6.5zM186 -11q-9 0 -15.5 6.5t-6.5 15.5v0v742q0 9 6.5 15.5t15.5 6.5t15.5 -6.5t6.5 -15.5v-742q0 -9 -6.5 -15.5t-15.5 -6.5v0zM830 -96v0q-9 0 -15.5 6.5t-6.5 16.5v0v738
q0 9 6.5 15.5t15.5 6.5t15.5 -6.5t6.5 -15.5v-738q0 -10 -6.5 -16.5t-15.5 -6.5v0zM737 643v0q-9 0 -15.5 6.5t-6.5 15.5v176v0q0 9 6.5 15.5t16 6.5t16 -6.5t6.5 -15.5v0v-176q0 -9 -6.5 -15.5t-16.5 -6.5v0zM274 10q-9 0 -16 6.5t-7 15.5v0v521q0 9 7 16t16 7t15.5 -7
t6.5 -16v-521q0 -9 -6.5 -15.5t-15.5 -6.5v0zM830 -99h-556q-46 0 -78 32.5t-32 77.5q0 10 6.5 16.5t15.5 6.5t15.5 -6.5t6.5 -16.5q0 -27 19.5 -46t46.5 -19h556v0q9 0 15.5 -6.5t6.5 -16t-6.5 -16t-15.5 -6.5v0zM736 206h-113v0q-9 0 -16 6.5t-7 15.5v0v343q0 10 7 16.5
t16 6.5v0h113v0q9 0 15.5 -6.5t6.5 -16.5v0v-343q0 -9 -6.5 -15.5t-15.5 -6.5zM645 251h68v298h-68v-298zM736 764h-540q-10 0 -16.5 6.5t-6.5 16t6.5 16t16.5 6.5h540q9 0 15.5 -6.5t6.5 -16t-6.5 -16t-15.5 -6.5zM736 703h-540q-10 0 -16.5 7t-6.5 16t6.5 15.5t16.5 6.5
h540q9 0 15.5 -6.5t6.5 -15.5t-6.5 -16t-15.5 -7z" />
    <glyph glyph-name="yiyuan" unicode="&#xe688;" 
d="M902 485q43 -42 43 -102.5t-43 -102.5l-289 -290q-43 -42 -103 -42t-103 42l-289 290q-43 42 -43 102.5t43 102.5l289 290q43 42 103 42t103 -42zM748 300v152h-160v160h-152v-160h-160v-152h160v-160h152v160h160zM748 452v-152h-160v-160h-152v160h-160v152h160v160
h152v-160h160zM510 -75q-69 0 -118 49l-290 290q-49 49 -49 118.5t49 118.5l290 290q49 49 118 49t118 -49l290 -290q49 -49 49 -118.5t-49 -118.5l-290 -290q-49 -49 -118 -49zM510 795q-51 0 -87 -36l-290 -290q-36 -36 -36 -86.5t36 -86.5l290 -290q36 -36 87 -36t87 36
l289 290q36 36 36 86.5t-36 86.5l-289 290q-36 36 -87 36zM588 118h-152v0q-9 0 -15.5 6.5t-6.5 15.5v138h-138q-9 0 -15.5 6.5t-6.5 15.5v152q0 9 6.5 15.5t15.5 6.5h138v138q0 9 6.5 16t15.5 7h152v0q9 0 15.5 -7t6.5 -16v-138h138v0q9 0 16 -6.5t7 -15.5v-152
q0 -9 -7 -15.5t-16 -6.5h-138v-138q0 -9 -6.5 -15.5t-15.5 -6.5zM459 162h107v138q0 10 6.5 16.5t15.5 6.5h138v107h-138v0q-9 0 -15.5 6.5t-6.5 15.5v138h-107v-138q0 -9 -6.5 -15.5t-16.5 -6.5h-138v-107h138v0q10 0 16.5 -6.5t6.5 -16.5v-138z" />
    <glyph glyph-name="yifu" unicode="&#xe689;" 
d="M945 675q27 -16 35.5 -46.5t-7.5 -57.5l-72 -125q-16 -27 -46.5 -35t-57.5 8l-11 6l-20 -450h-491l-20 454l-18 -10q-27 -16 -57.5 -8t-46.5 35l-72 125q-15 27 -7 57.5t35 46.5l191 110v-1q0 -90 69.5 -153t167.5 -63t167.5 63t69.5 153l1 1zM590 270l72 71l-100 15
l-45 90l-45 -90l-100 -15l73 -71l-17 -99l89 47l90 -47zM755 785l-1 -1q0 -90 -69.5 -153t-167.5 -63t-167.5 63t-69.5 153v1l22 13q18 10 38 10q9 0 18 -2q1 -65 47.5 -111t112 -46t112 46t47.5 112h1q8 1 16 1q21 0 39 -10zM662 341l-72 -71l17 -99l-90 47l-89 -47l17 99
l-73 71l100 15l45 90l45 -90zM766 -47h-491q-9 0 -15.5 6t-6.5 15l-18 419q-33 -13 -67.5 -1t-53.5 44l-71 124q-21 35 -10.5 74.5t45.5 59.5l213 123q23 13 49 13q12 0 23 -3h0.5h0.5q9 -2 13.5 -10t2.5 -16.5t-9.5 -13t-16.5 -2.5v0h-1q-6 1 -13 1q-14 0 -27 -7l-213 -123
q-19 -11 -25 -33t5 -41l72 -125q11 -19 33 -25t41 5l18 11q5 3 11 3q9 0 15 -6.5t7 -14.5l19 -433h449l19 429q0 12 11 18q5 3 11 3t11 -3l11 -7q19 -11 41 -5t33 25l72 125q11 19 5.5 41t-25.5 33l-213 123q-12 7 -27 7q-6 0 -12 -1h-4q-9 0 -15.5 6t-6.5 16q0 17 17 21
q10 2 21 2q27 0 49 -13l213 -123q35 -20 45.5 -59.5t-9.5 -74.5l-72 -124q-17 -30 -49.5 -42.5t-64.5 -2.5l-18 -417q0 -9 -6.5 -15t-15.5 -6v0v0zM517 627q-74 0 -127 52.5t-54 126.5v2v0v0q0 9 6.5 15.5t15.5 6.5t15.5 -6.5t6.5 -15.5v0v-1v-1q0 -56 40.5 -95.5t97 -39.5
t96.5 39.5t41 96.5v1v0v0q0 9 6.5 15.5t15.5 6.5t15 -6.5t6 -15.5v0v-2q0 -74 -53.5 -126.5t-127.5 -52.5zM517 546q-107 0 -183 70t-76 168v0q0 9 6.5 15.5t15.5 6.5t15.5 -6.5t6.5 -15.5v0q0 -80 63 -137.5t152 -57.5t152 57.5t63 137.5v0q0 9 6.5 15.5t15.5 6.5
t15.5 -6.5t6.5 -15.5v0q0 -98 -76 -168t-183 -70zM607 149v0q-6 0 -10 2l-80 42l-79 -42q-5 -2 -10 -2q-9 0 -15.5 6.5t-6.5 15.5v4l15 88l-64 62q-6 7 -6 16q0 8 5 14t13 8l89 12l40 81q6 12 19 12v0q14 0 20 -12l39 -81l89 -12q8 -2 13.5 -8t5.5 -14q0 -9 -7 -16l-64 -62
l15 -89q1 -1 1 -3q0 -9 -6.5 -15.5t-15.5 -6.5v0zM517.5 240q5.5 0 9.5 -3l51 -27l-10 57v3q0 10 6 16l41 40l-56 8q-12 2 -17 13l-25 50l-25 -51q-5 -11 -17 -12l-56 -8l41 -40q7 -6 7 -16q0 -1 -1 -3l-9 -57l50 27q5 3 10.5 3z" />
    <glyph glyph-name="yu" unicode="&#xe68a;" 
d="M374 747l329 -112q-55 16 -117 16v0q-74 0 -145 -25zM681 129l-307 -105l64 120q70 -26 148 -26v0v0q50 0 98 11h-3zM438 144q-137 50 -220 174l-178 -137l60 204l-60 205l176 -136q86 123 225 172q71 25 145 25v0q62 0 120 -17q95 -25 171 -91.5t116 -157.5
q-42 -97 -124.5 -165t-187.5 -91q-45 -11 -95 -11v0v0q-78 0 -151 27zM880 391.5q0 36.5 -25.5 62t-61.5 25.5t-61.5 -25.5t-25.5 -62t25.5 -62t61.5 -25.5t61.5 25.5t25.5 62zM793 479q36 0 61.5 -25.5t25.5 -62t-25.5 -62t-61.5 -25.5t-61.5 25.5t-25.5 62t25.5 62
t61.5 25.5zM874 397.5q0 16.5 -11.5 28t-28 11.5t-28 -11.5t-11.5 -28t11.5 -28t28 -11.5t28 11.5t11.5 28zM586 98v0q-82 0 -158 28q-129 47 -215 163l-160 -124q-6 -4 -13 -4q-8 0 -14 6t-6 14q0 3 1 6l57 198l-57 199q-1 3 -1 6q0 8 6 14t14 6q7 0 13 -4l159 -123
q88 115 222 162q74 26 152 26q63 0 122 -16q101 -27 181.5 -96.5t122.5 -165.5q2 -4 2 -8.5t-2 -8.5q-45 -102 -131.5 -173t-194.5 -94q-47 -11 -100 -11v0v0zM218 339q11 0 17 -9q79 -119 210 -166q66 -25 141 -25v0v0q48 0 94 10q95 21 172 83.5t119 152.5
q-39 84 -111.5 145t-162.5 85q-52 15 -111 15v0q-71 0 -138 -24q-133 -47 -215 -164q-6 -9 -17 -9q-7 0 -12 5l-127 97l42 -144q1 -3 1 -6t-1 -5l-42 -144l128 98q6 5 13 5v0zM374 4q-8 0 -14 6t-6 14q0 15 13 19q33 12 205.5 63.5t174.5 44.5q1 -3 1 -6q0 -15 -13 -20
l-354 -120q-3 -1 -7 -1v0zM374 4q-8 0 -14 6t-6 14q0 5 2 10l64 120q4 7 12 10t15 -1q12 -6 12 -18q0 -6 -3 -10l-64 -121q-6 -10 -18 -10v0v0zM444 601v0q-12 0 -18 11l-70 125q-2 5 -2 10q0 9 6 15t14 6q4 0 7 -2l354 -120q13 -5 13 -19q0 -9 -6 -15t-14 -6q-4 0 -7 1
l-303 104l44 -80q2 -4 2 -9q0 -9 -6 -15t-14 -6zM792.5 284q-44.5 0 -76 31.5t-31.5 76t31.5 76t76 31.5t76 -31.5t31.5 -76t-31.5 -76t-76 -31.5zM792.5 458q-27.5 0 -47 -19.5t-19.5 -47t19.5 -47t47 -19.5t47 19.5t19.5 47t-19.5 47t-47 19.5zM834.5 337
q-24.5 0 -42.5 18t-18 42.5t18 42.5t42.5 18t42.5 -18t18 -42.5t-18 -42.5t-42.5 -18zM834.5 417q-7.5 0 -13.5 -6t-6 -13.5t6 -13.5t13.5 -6t13.5 6t6 13.5t-6 13.5t-13.5 6zM439 347q-5 0 -10 2q-104 56 -171 155q-3 5 -3 11q0 9 6 15t14 6q11 0 17 -9q61 -91 156 -141
q11 -6 11 -19q0 -8 -6 -14t-14 -6v0zM510 402q-5 0 -10 3q-103 55 -169 153q-3 6 -3 12q0 8 6 14t14 6q11 0 17 -9q61 -90 155 -140q11 -6 11 -18q0 -9 -6 -15t-15 -6v0zM608 449q-5 0 -9 2q-109 55 -178 158q-4 5 -4 12q0 8 6 14t15 6q11 0 17 -9q63 -94 162 -145
q12 -6 12 -18q0 -8 -6 -14t-15 -6v0zM476 198v0q-5 0 -8 2q-84 37 -147 101q82 -65 91 -57q0 1 4 6q4 8 12 10t16 -2q69 -41 151 -52q-49 13 -71.5 17t-25 2.5t-2.5 -6.5q0 -9 -6 -15t-14 -6v0zM378 264h-1q-6 0 -11 4q-97 66 -151 168q73 -96 76 -97q0 9 6.5 15t14.5 6
t14 -6q76 -76 176 -108q-102 47 -104 39q0 -9 -6 -15t-14 -6v0z" />
    <glyph glyph-name="dianying" unicode="&#xe68b;" 
d="M943 36v-87h-434q145 0 261 87h173zM508.5 818q88.5 0 169 -34.5t138.5 -92.5t92.5 -138.5t34.5 -168.5q0 -105 -46.5 -196t-126.5 -152q-116 -87 -261 -87q-89 0 -169.5 34.5t-138.5 92.5t-92.5 138.5t-34.5 169t34.5 169t92.5 138.5t138.5 92.5t169 34.5zM785 540
q0 40 -28.5 68.5t-68.5 28.5t-68.5 -28.5t-28.5 -68.5t28.5 -68.5t68.5 -28.5t68.5 28.5t28.5 68.5zM785 202.5q0 40.5 -28.5 68.5t-68.5 28t-68.5 -28t-28.5 -68.5t28.5 -69t68.5 -28.5t68.5 28.5t28.5 69zM562 371.5q0 17.5 -12.5 30t-30.5 12.5t-30 -12.5t-12 -30t12 -30
t30 -12.5t30.5 12.5t12.5 30zM447 540q0 40 -28.5 68.5t-68.5 28.5t-68.5 -28.5t-28.5 -68.5t28.5 -68.5t68.5 -28.5t68.5 28.5t28.5 68.5zM447 202.5q0 40.5 -28.5 68.5t-68.5 28t-68.5 -28t-28.5 -68.5t28.5 -69t68.5 -28.5t68.5 28.5t28.5 69zM509 -73q-93 0 -178 36
t-146 97.5t-97 146t-36 177t36 177.5t97 146t146 97.5t177.5 36.5t177.5 -36.5t146 -97.5t97.5 -146t36.5 -177q0 -109 -48 -204.5t-134 -160.5q-122 -92 -275 -92zM508.5 796q-111.5 0 -206.5 -55.5t-150.5 -150.5t-55.5 -206.5t55.5 -206.5t150.5 -150.5t207 -55.5
q138 0 248 83q78 59 121 145.5t43 184.5q0 111 -55.5 206t-150.5 150.5t-206.5 55.5zM340.5 430q-49.5 0 -84.5 35t-35 84.5t35 84.5t84.5 35t84.5 -35t35 -84.5t-35 -84.5t-84.5 -35zM340.5 624q-30.5 0 -52.5 -21.5t-22 -52.5t22 -53t52.5 -22t52.5 22t22 53t-22 52.5
t-52.5 21.5zM678.5 430q-49.5 0 -84.5 35t-35 84.5t35 84.5t84.5 35t84.5 -35t35 -84.5t-35 -84.5t-84.5 -35zM678.5 624q-30.5 0 -52.5 -21.5t-22 -52.5t22 -53t52.5 -22t52.5 22t22 53t-22 52.5t-52.5 21.5zM340.5 93q-49.5 0 -84.5 35t-35 84t35 84t84.5 35t84.5 -35
t35 -84t-35 -84t-84.5 -35zM340.5 287q-30.5 0 -52.5 -22t-22 -53t22 -53t52.5 -22t52.5 22t22 53t-22 53t-52.5 22zM678.5 93q-49.5 0 -84.5 35t-35 84t35 84t84.5 35t84.5 -35t35 -84t-35 -84t-84.5 -35zM678.5 287q-30.5 0 -52.5 -22t-22 -53t22 -53t52.5 -22t52.5 22
t22 53t-22 53t-52.5 22zM509.5 316q-26.5 0 -45.5 19t-19 46t19 46t45.5 19t45.5 -19t19 -46t-19 -46t-45.5 -19zM509.5 401q-8.5 0 -14.5 -6t-6 -14t6 -14t14.5 -6t14.5 6t6 14t-6 14t-14.5 6zM943 -73h-434v0q-10 0 -16.5 6.5t-6.5 15.5t6.5 15.5t16.5 6.5v0h434
q9 0 16 -6.5t7 -15.5t-7 -15.5t-16 -6.5zM943 14h-173v0q-9 0 -15.5 6.5t-6.5 16t6.5 16t15.5 6.5v0h173q9 0 16 -6.5t7 -16t-7 -16t-16 -6.5z" />
    <glyph glyph-name="jiweijiu" unicode="&#xe68c;" 
d="M841.5 839q52.5 0 89.5 -37t37 -89t-37 -89t-89.5 -37t-89.5 37l-1 1l87 86h-123v2q0 52 37 89t89.5 37zM606 -68h-265q0 55 38.5 93.5t93.5 38.5t94 -38.5t39 -93.5zM476 349l-238 239l4 4q14 0 24.5 -10t16.5 -22t16.5 -22t24.5 -10t24.5 10t16.5 22t16.5 22t24 10
t24.5 -10t17 -22t16.5 -22t24 -10t24.5 10t17 22t16.5 22t24 10t24 -10t16.5 -22t17 -22t24 -10l2 -2zM476 326v0q-9 0 -15 7l-362 362q-6 7 -6 16.5t6.5 16t15.5 6.5h723q9 0 15.5 -6.5t6.5 -16t-6 -16.5l-362 -362q-6 -7 -15 -7h-1zM169 689l307 -309l308 309h-615z
M651 505q-15 0 -27.5 8t-18 15t-13.5 20q-14 21 -22.5 21t-22.5 -21q-8 -13 -13.5 -20t-18 -15t-28 -8t-28 8t-18 15t-13.5 20q-14 21 -22 21t-22 -21q-8 -13 -14 -20t-18.5 -15t-27.5 -8t-28 8t-18.5 15t-13.5 20q-14 21 -22 21q-9 0 -15.5 6.5t-6.5 16t6.5 16t15.5 6.5
q15 0 28 -8t18.5 -15t13.5 -19q14 -22 22 -22t22 22q8 12 13.5 19t18.5 15t28 8t27.5 -8t18 -15t14.5 -19q13 -22 21.5 -22t22.5 22q8 12 13.5 19t18 15t28 8t28 -8t18 -15t13.5 -19q14 -22 22 -22q10 0 16.5 -6.5t6.5 -16t-6.5 -16t-16.5 -6.5zM841.5 564
q-61.5 0 -105.5 44q-6 7 -6 16t6.5 15.5t15.5 6.5t16 -6q30 -31 73 -31t73.5 30.5t30.5 73.5t-30.5 73.5t-73.5 30.5t-73 -30.5t-30 -73.5q0 -9 -7 -15.5t-16 -6.5t-15.5 6.5t-6.5 15.5q0 62 43.5 105.5t105 43.5t105 -43.5t43.5 -105t-43.5 -105.5t-105 -44zM476 44v0
q-9 0 -15.5 6.5t-6.5 15.5v283q0 9 6.5 15.5t16 6.5t16 -6.5t6.5 -15.5v-283q0 -9 -6.5 -15.5t-16.5 -6.5zM606 -91h-265v0q-9 0 -15.5 6.5t-6.5 16.5q0 64 45 109t109 45t109.5 -45t45.5 -109q0 -10 -6.5 -16.5t-15.5 -6.5zM366 -46h215q-8 38 -38 63t-69.5 25t-70 -25
t-37.5 -63z" />
    <glyph glyph-name="hongjiu" unicode="&#xe68d;" 
d="M661.5 585q17.5 0 31.5 -9.5t21.5 -21.5t21 -22t30.5 -11q-27 -87 -97 -142.5t-157 -55.5h-4q-104 0 -180.5 75.5t-86.5 186.5q17 0 30.5 -10t21 -22t21.5 -22t31.5 -10t31 10t21.5 22t21.5 22t31 10t31.5 -10t21.5 -22t21.5 -22t31.5 -10t31 10t21.5 22t21.5 22t31 10z
M510 122l138 -166h-277zM512 301h-4q-113 0 -196 82q-82 81 -93 200q-1 16 -1 31v196q0 10 6.5 16.5t15.5 6.5t15.5 -6.5t6.5 -16.5v-196q0 -13 2 -27q9 -103 79 -172t165 -69h4q79 0 143 50t90 132q13 42 13 86v196q0 10 6.5 16.5t15.5 6.5t15.5 -6.5t6.5 -16.5v-196
q0 -51 -15 -99q-29 -96 -105.5 -155t-169.5 -59zM780 788h-540q-9 0 -15.5 6.5t-6.5 16t6.5 16t15.5 6.5h540q9 0 15.5 -6.5t6.5 -16t-6.5 -16t-15.5 -6.5zM239 608h3q16 -1 30.5 -8.5t21 -14t15.5 -17.5q12 -14 19 -19t17.5 -5t17.5 5t18 19q10 12 16.5 18.5t21.5 14
t32 7.5t31.5 -7.5t21.5 -14t17 -18.5q11 -14 18 -19t17.5 -5t17.5 5t18 19q10 12 16.5 18.5t21.5 14t32 7.5t32 -7.5t21.5 -14t16.5 -18.5q11 -14 18 -19t17 -5v0h1q3 0 5.5 -1t3 -4t1 -4.5t0 -6.5t-0.5 -6.5t-0.5 -3.5t-1.5 -3.5t-3 -3t-3 -2.5l-3 -3q-6 -4 -6 -5t8 -2h-3
q-16 0 -30.5 7.5t-21 14t-15.5 18.5q-12 14 -19 19t-17.5 5t-17 -5t-18.5 -19q-10 -12 -16.5 -18.5t-21.5 -14t-32 -7.5t-31.5 7.5t-21.5 14t-17 18.5q-11 14 -18 19t-17.5 5t-17.5 -5t-18 -19q-10 -12 -16.5 -18.5t-21.5 -14t-32 -7.5t-32 7.5t-21.5 14t-16.5 18.5
q-11 13 -17.5 18.5t-16.5 5.5h-1h-1v45zM510 114v0q-9 0 -15.5 6.5t-6.5 16.5v186q0 9 6.5 15.5t15.5 6.5t15.5 -6.5t6.5 -15.5v-186q0 -10 -6.5 -16.5t-15.5 -6.5zM648 -66h-277v0q-9 0 -15.5 6.5t-6.5 15.5q0 8 5 14l139 167q6 8 16.5 8t17.5 -8l138 -165q6 -7 6 -16
t-6.5 -15.5t-16.5 -6.5v0zM419 -22h182l-91 109z" />
    <glyph glyph-name="huoguo" unicode="&#xe68e;" 
d="M884 557v0q0 -103 -51 -191t-138.5 -138.5t-191 -50.5t-191 50.5t-138.5 138.5t-51 191h761zM719 149l57 -199h-545l57 199q103 -46 216 -46t215 46zM576 819l64 -262h-273l20 82l7 -2q26 -5 47.5 9t27 39.5t-9 47t-39.5 26.5l-3 1l14 59h145zM420 759q25 -5 39.5 -26.5
t9 -47t-27 -39.5t-47.5 -9l-7 2l30 121zM503.5 154q-109.5 0 -202 54t-146.5 147t-54 202q0 9 6.5 15.5t15.5 6.5h244q9 0 15.5 -6.5t6.5 -15.5t-6.5 -15.5t-15.5 -6.5h-221q9 -141 112.5 -238.5t245.5 -97.5t245 97.5t112 238.5h-221q-9 0 -15.5 6.5t-6.5 15.5t6.5 15.5
t15.5 6.5h244q9 0 16 -6.5t7 -15.5q0 -109 -54 -202t-147 -147t-202.5 -54zM776 -73h-545v0q-9 0 -15.5 7t-6.5 16q0 3 1 6l56 199q2 6 8.5 11t13.5 5q9 0 15.5 -6.5t6.5 -16.5q0 -3 -1 -6l-48 -170h486l-49 170q-1 3 -1 7q0 9 6.5 15.5t15.5 6.5q7 0 13.5 -5t8.5 -11
l57 -199q1 -3 1 -6q0 -9 -6.5 -16t-16.5 -7v0zM504 81q-10 0 -16.5 6.5t-6.5 15.5t6.5 15.5t16.5 6.5q108 0 206 44q5 2 9 2q10 0 16.5 -6.5t6.5 -15.5v-1q0 -15 -14 -20q-107 -47 -224 -47zM504 81q-118 0 -225 47q-13 6 -13 20q0 10 6.5 16.5t15.5 6.5q5 0 9 -2
q98 -44 207 -44q9 0 15.5 -6.5t6.5 -15.5t-6.5 -15.5t-15.5 -6.5zM132 451h-107q-10 0 -16.5 6.5t-6.5 15.5t6.5 16t16.5 7h107q9 0 15.5 -7t6.5 -16t-6.5 -15.5t-15.5 -6.5zM990 448h-107q-9 0 -15.5 6.5t-6.5 16t6.5 16t15.5 6.5h107q9 0 16 -6.5t7 -16t-7 -16t-16 -6.5v0
zM640 535h-273v0q-9 0 -15.5 6.5t-6.5 15.5v5l64 263q2 7 8.5 12t13.5 5h145v0q8 0 14 -5t8 -12l64 -263q1 -2 1 -5q0 -9 -6.5 -15.5t-16.5 -6.5v0zM396 579h216l-53 218h-110zM407 613q-9 0 -17 2q-7 2 -12.5 8t-5.5 14q0 9 6.5 15.5t16.5 6.5h4q16 -4 30 5.5t17.5 25.5
t-5.5 30t-26 18q-7 1 -12 7.5t-5 13.5q0 10 6.5 16.5t15.5 6.5q2 0 4 -1q35 -7 54 -36.5t12 -63.5q-6 -30 -29.5 -49t-53.5 -19zM389 258q-5 0 -10 2q-90 41 -145 125q-4 5 -4 12q0 9 7 15.5t16 6.5q12 0 19 -10q47 -73 126 -109q13 -6 13 -20q0 -9 -6.5 -15.5t-15.5 -6.5v0
zM225 429v0q-15 0 -21 14q-9 21 -15 44v6q0 9 6.5 15.5t15.5 6.5q7 0 13.5 -5t8.5 -12q5 -20 12 -39q2 -4 2 -8q0 -9 -6.5 -15.5t-15.5 -6.5z" />
    <glyph glyph-name="hanbao" unicode="&#xe68f;" 
d="M876 241q26 0 44.5 -18.5t18.5 -44.5q0 -25 -17.5 -43.5t-42.5 -19.5h-3h-734h-4q-25 1 -42.5 19t-17.5 44t18.5 44.5t45.5 18.5h734zM889 357v-36q0 -10 -9 -10h-743q-8 0 -8 10v100q25 0 44.5 -10t31 -22t31 -22t45 -10t45 10t31 22t31 22t45 10t45.5 -10t31 -22
t31 -22t45 -10t45 10t31 22t31 22t45.5 10t45 -10t30.5 -22t31 -22t45 -10zM889 462v-105q-25 0 -45 10t-31 22t-30.5 22t-45 10t-45.5 -10t-31 -22t-31 -22t-45 -10t-45 10t-31 22t-31 22t-45.5 10t-45 -10t-31 -22t-31 -22t-45 -10t-45 10t-31 22t-31 22t-44.5 10v41
q0 11 8 11h743q9 0 9 -11zM889 553v-8h-760v8q0 67 51 123.5t138.5 89t190.5 32.5t190.5 -32.5t138.5 -89t51 -123.5zM667 710q0 8 -5.5 13.5t-13.5 5.5t-13.5 -5.5t-5.5 -13.5t5.5 -13.5t13.5 -5.5t13.5 5.5t5.5 13.5zM536 646v0q0 6 -4 10t-9.5 4t-9.5 -4t-4 -10v0
q0 -5 4 -9t9.5 -4t9.5 4t4 9zM475 742.5q0 5.5 -4 9t-9 3.5v0q-6 0 -10 -3.5t-3.5 -9t4 -9.5t9 -4t9.5 4t4 9.5zM355 680.5q0 4.5 -3 7.5t-7.5 3t-8 -3t-3.5 -7.5t3.5 -8t8 -3.5t7.5 3.5t3 8zM876 115h3v-2q0 -58 -41 -99t-99 -41h-460q-59 0 -100 41t-41 99v2h4h734z
M889 531v0q-9 0 -16 6.5t-7 15.5q0 90 -101 155q-105 68 -256 68t-257 -68q-101 -65 -101 -155q0 -9 -6.5 -15.5t-15.5 -6.5t-15.5 6.5t-6.5 15.5q0 55 31 105t90 87q117 76 281 76t281 -76q58 -37 89.5 -87t31.5 -105q0 -9 -6.5 -15.5t-15.5 -6.5zM889 523h-760
q-9 0 -15.5 6.5t-6.5 16t6.5 16t15.5 6.5h760q9 0 15.5 -6.5t6.5 -16t-6.5 -16t-15.5 -6.5zM739 -49h-460q-68 0 -115.5 47.5t-47.5 114.5q0 10 6.5 16.5t16 6.5t16 -6.5t6.5 -16.5q0 -48 34.5 -82.5t83.5 -34.5h460q49 0 83.5 34.5t34.5 82.5q0 10 6.5 16.5t16 6.5t16 -6.5
t6.5 -16.5q0 -67 -48 -114.5t-115 -47.5zM876 92h-734h-5q-34 2 -57.5 27t-23.5 59q0 35 25 60.5t61 25.5h734q36 0 61 -25.5t25 -60.5q0 -34 -23.5 -59t-58.5 -27h-4zM142 219q-17 0 -29 -12t-12 -29t11 -28.5t28 -12.5h2h734h2q16 1 27.5 12.5t11.5 28.5t-12 29t-29 12
h-734zM880 288h-743q-12 0 -21 9.5t-9 23.5v141q0 14 9 23.5t21 9.5h743q13 0 22 -9.5t9 -23.5v-141q0 -14 -9 -23.5t-22 -9.5zM151 333h715v117h-715v-117zM890 334h-1q-21 1 -40 7.5t-27.5 12.5t-22.5 18q-11 9 -17.5 13.5t-18.5 8.5t-26 4t-25.5 -4t-18 -8.5t-17.5 -13.5
q-14 -12 -23 -18t-28 -13t-40 -7t-40 7t-28 13t-23 18q-11 9 -17.5 13.5t-18 8.5t-25.5 4t-26 -4t-18.5 -8.5t-17.5 -13.5q-14 -12 -22.5 -18t-27.5 -13t-40.5 -7t-40.5 7t-27.5 13t-22.5 18q-11 9 -17.5 13.5t-18 8.5t-25.5 4h-1q-9 0 -15.5 6.5t-6.5 16t6.5 16t15.5 6.5h1
q21 0 39.5 -6.5t27.5 -13t23 -17.5q11 -10 17.5 -14.5t18 -8.5t26 -4t26 4t18 8.5t17.5 14.5q14 11 23 17.5t27.5 13t40 6.5t40.5 -6.5t28 -13t22 -17.5q12 -10 18 -14.5t18 -8.5t26 -4t26 4t18 8.5t18 14.5q13 11 22 17.5t28 13t40.5 6.5t40 -6.5t27.5 -13t23 -17.5
q11 -10 17.5 -14.5t18 -8.5t25.5 -4h1q9 0 15.5 -6.5t6.5 -15.5t-6.5 -16t-15.5 -7zM461.5 707q-14.5 0 -25 10t-10.5 25t10.5 25.5t25 10.5t25 -10.5t10.5 -25.5t-10.5 -25t-25 -10zM461.5 751q-9.5 0 -9.5 -9t10 -9v0q9 0 9 9t-9.5 9zM648 669q-17 0 -29.5 12t-12.5 29
t12.5 29t29.5 12t29 -12t12 -29t-12 -29t-29 -12zM647.5 713q-3.5 0 -3.5 -3t3.5 -3t3.5 3t-3.5 3zM522.5 610q-14.5 0 -25 10.5t-10.5 25.5t10.5 25.5t25 10.5t25 -10.5t10.5 -25.5t-10.5 -25.5t-25 -10.5zM522 655v0q-8 0 -8.5 -9t8.5 -9t9 9t-9 9v0zM344 647
q-14 0 -23.5 9.5t-9.5 23.5t9.5 24t23.5 10t24 -10t10 -24t-10 -23.5t-24 -9.5zM344.5 691q-4.5 0 -8 -3t-3.5 -8t3.5 -8t8 -3t8 3t3.5 8t-3.5 8t-8 3z" />
    <glyph glyph-name="kafei" unicode="&#xe690;" 
d="M826 315h-90l-6 1q1 9 1 18v63h187q0 -131 -92 -223.5t-223 -92.5q22 15 46.5 42.5t37.5 50.5h1q48 19 84 56t54 85zM603 81q-84 -63 -188 -63q-131 0 -224 92.5t-93 223.5v154h633v-154q0 -9 -1 -18q-4 -76 -43 -142q-13 -23 -37.5 -50.5t-46.5 -42.5zM415 -4
q-141 0 -240 99t-99 239v154q0 9 6.5 15.5t15.5 6.5t16 -6.5t7 -15.5v-154q0 -121 86 -207.5t208 -86.5q97 0 175 58q20 15 43 40.5t35 47.5q36 60 40 131v17v154q0 9 7 15.5t16 6.5t15.5 -6.5t6.5 -15.5v-154v-20q-5 -81 -46 -151q-35 -59 -90 -100q-90 -67 -202 -67z
M731 465h-633q-9 0 -15.5 6.5t-6.5 16t6.5 16t15.5 6.5h633q9 0 15.5 -6.5t6.5 -16t-6.5 -16t-15.5 -6.5zM602 -100h-389q-9 0 -15.5 6.5t-6.5 15.5t6.5 15.5t15.5 6.5h389q9 0 16 -6.5t7 -15.5t-7 -15.5t-16 -6.5zM602 58q-9 0 -15.5 6.5t-6.5 16t6.5 16t15.5 6.5h-1h2
q121 0 207 86.5t86 207.5q0 9 6.5 15.5t15.5 6.5t16 -6.5t7 -15.5q0 -92 -45.5 -169.5t-123 -123t-168.5 -46.5h-2zM918 374h-178q-9 0 -15.5 7t-6.5 16t6.5 15.5t15.5 6.5h178q9 0 16 -6.5t7 -15.5t-7 -16t-16 -7zM688 152v0q-10 0 -16.5 6.5t-6.5 15.5q0 16 14 21
q38 15 75 52.5t51 75.5v1q6 14 21 14q9 0 15.5 -6.5t6.5 -15.5q0 -5 -1 -9q-17 -46 -61.5 -91t-89.5 -62q-4 -2 -8 -2zM826 293h-90q-9 0 -15.5 6.5t-6.5 16t6.5 16t15.5 6.5h90q9 0 15.5 -6.5t6.5 -16t-6.5 -16t-15.5 -6.5zM203 542q-9 0 -15.5 6.5t-6.5 15.5q0 14 8.5 26
t16.5 17t22 13q22 11 22 15.5t-22 15.5q-14 7 -22 12t-16.5 17t-8.5 26.5t8.5 26.5t16.5 17t22 13q22 11 22 15q0 10 7 16.5t16 6.5t15.5 -6.5t6.5 -16.5q0 -14 -8.5 -26t-16.5 -17t-22 -12q-22 -12 -22 -16t22 -16q14 -7 22 -12t16.5 -17t8.5 -26.5t-8.5 -26.5t-16.5 -17
t-22 -12q-22 -12 -22 -16q0 -9 -7 -15.5t-16 -6.5zM394 608v0q-9 0 -15.5 6.5t-6.5 15.5q0 14 8.5 26t16.5 17t22 13q22 11 22 15.5t-22 15.5q-14 7 -22 12t-16.5 17t-8.5 26.5t8.5 26.5t16.5 17t22 13q22 11 22 15q0 10 6.5 16.5t16 6.5t16 -6.5t6.5 -16.5q0 -14 -8.5 -26
t-16.5 -17t-22 -12q-22 -12 -22 -16t22 -16q14 -7 22 -12t16.5 -17t8.5 -26.5t-8.5 -26.5t-16.5 -17t-22 -12q-23 -12 -23 -16q0 -9 -6.5 -15.5t-15.5 -6.5zM585 542v0q-9 0 -15.5 6.5t-6.5 15.5q0 14 8.5 26t16.5 17t22 13q22 11 22 15.5t-22 15.5q-14 7 -22 12t-16.5 17
t-8.5 26.5t8.5 26.5t16.5 17t22 13q22 11 22 15q0 10 6.5 16.5t16 6.5t16 -6.5t6.5 -16.5q0 -14 -8.5 -26t-16.5 -17t-22 -12q-23 -12 -23 -16t23 -16q14 -7 22 -12t16.5 -17t8.5 -26.5t-8.5 -26.5t-16.5 -17t-22 -12q-23 -12 -23 -16q0 -9 -6.5 -15.5t-15.5 -6.5z
M186.5 280q-9.5 0 -16 6.5t-6.5 15.5v101q0 9 6.5 15.5t16 6.5t16 -6.5t6.5 -15.5v-101q0 -9 -6.5 -15.5t-16 -6.5zM210 179v0q-14 0 -20 12q-2 4 -5 9q-6 10 -10 24v5q0 7 5 13.5t11 8.5q3 1 6 1q7 0 13.5 -5t8.5 -12q1 -7 4 -11q4 -6 7 -13q3 -4 3 -10q0 -9 -6.5 -15.5
t-16.5 -6.5z" />
    <glyph glyph-name="dangao" unicode="&#xe691;" 
d="M892 286v-226q0 -11 -16 -19.5t-38 -8.5h-658q-23 0 -39 8.5t-16 19.5v106q0 -29 21 -50t50.5 -21t50 21t20.5 50.5t-20.5 50t-50 20.5t-50.5 -20.5t-21 -50.5v120q0 11 16 19.5t39 8.5h658q22 0 38 -8.5t16 -19.5zM889 166.5q0 29.5 -20.5 50t-50 20.5t-50.5 -20.5
t-21 -50t21 -50.5t50.5 -21t50 21t20.5 50.5zM734 166.5q0 29.5 -21 50t-50.5 20.5t-50 -20.5t-20.5 -50t20.5 -50.5t50 -21t50.5 21t21 50.5zM578 166.5q0 29.5 -20.5 50t-50 20.5t-50.5 -20.5t-21 -50t21 -50.5t50.5 -21t50 21t20.5 50.5zM423 166.5q0 29.5 -21 50
t-50.5 20.5t-50 -20.5t-20.5 -50t20.5 -50.5t50 -21t50.5 21t21 50.5zM818.5 237q29.5 0 50 -20.5t20.5 -50t-20.5 -50.5t-50 -21t-50.5 21t-21 50.5t21 50t50.5 20.5zM799 317v-3h-580v115h1q19 0 34 -10t23.5 -22t23.5 -22t34.5 -10t34.5 10t23.5 22t23.5 22t34.5 10
t34.5 -10t23.5 -22t23.5 -22t34 -10t34.5 10t23.5 22t23.5 22t34.5 10t34 -10t23.5 -22t23.5 -22t35 -10v-48zM799 488v-123q-20 0 -35 10t-23.5 22t-23.5 22t-34 10t-34.5 -10t-23.5 -22t-23.5 -22t-34.5 -10t-34 10t-23.5 22t-23.5 22t-34.5 10t-34.5 -10t-23.5 -22
t-23.5 -22t-34.5 -10t-34.5 10t-23.5 22t-23.5 22t-34 10h-1v59q0 11 16 19.5t38 8.5h471q23 0 39 -8.5t16 -19.5zM662.5 237q29.5 0 50.5 -20.5t21 -50t-21 -50.5t-50.5 -21t-50 21t-20.5 50.5t20.5 50t50 20.5zM507.5 237q29.5 0 50 -20.5t20.5 -50t-20.5 -50.5t-50 -21
t-50.5 21t-21 50.5t21 50t50.5 20.5zM538 519v-3h-59v124q0 12 9 20.5t21 8.5v0q12 0 20.5 -8.5t8.5 -20.5v-121zM509 820q12 0 20.5 -8.5t8.5 -20.5v0q0 -12 -8.5 -20.5t-20.5 -8.5t-21 8.5t-9 20.5v0q0 12 9 20.5t21 8.5v0zM351.5 237q29.5 0 50.5 -20.5t21 -50t-21 -50.5
t-50.5 -21t-50 21t-20.5 50.5t20.5 50t50 20.5zM196.5 237q29.5 0 50 -20.5t20.5 -50t-20.5 -50.5t-50 -21t-50.5 21t-21 50.5t21 50t50.5 20.5zM799 295v0q-10 0 -16.5 6.5t-6.5 15.5v168q-9 8 -32 8h-471q-22 0 -32 -8v-168q0 -9 -6.5 -15.5t-16 -6.5t-16 6.5t-6.5 15.5
v171q0 22 22 36t55 14h471q34 0 55.5 -14t21.5 -36v-171q0 -9 -6.5 -15.5t-15.5 -6.5zM838 10h-658q-34 0 -55.5 14t-21.5 36v226q0 22 21.5 36t55.5 14h658q33 0 55 -14t22 -36v-226q0 -22 -22 -36t-55 -14zM148 63q9 -8 32 -8h658q22 0 32 8v220q-10 8 -32 8h-658
q-23 0 -32 -8v-220zM925 -72h-831q-9 0 -15.5 7t-6.5 16t6.5 15.5t15.5 6.5h831q10 0 16.5 -6.5t6.5 -15.5t-6.5 -16t-16.5 -7zM538 497v0q-9 0 -15.5 6.5t-6.5 15.5v121q0 7 -7 7q-3 0 -5 -2t-2 -5v0v-121q0 -9 -6.5 -15.5t-16 -6.5t-16 6.5t-6.5 15.5v121q0 21 15 36
t37 15v0q21 0 36 -15t15 -36v-121q0 -9 -6.5 -15.5t-15.5 -6.5zM509 739v0q-22 0 -37 15.5t-15 36.5t15 36.5t37 15.5v0q21 0 36 -15.5t15 -36.5t-15 -36.5t-36 -15.5zM509 798v0q-3 0 -5 -2t-2 -5t2 -5t5 -2t5 2t2 5v0q0 7 -7 7zM196.5 73q-38.5 0 -66 27.5t-27.5 66
t27.5 66t66 27.5t66 -27.5t27.5 -66t-27.5 -66t-66 -27.5zM196 215q-20 0 -34 -14t-14 -34.5t14 -34.5t34 -14t34.5 14t14.5 34.5t-14.5 34.5t-34.5 14zM351.5 73q-38.5 0 -66 27.5t-27.5 66t27.5 66t66 27.5t66 -27.5t27.5 -66t-27.5 -66t-66 -27.5zM352 215
q-20 0 -34.5 -14t-14.5 -34.5t14.5 -34.5t34.5 -14t34 14t14 34.5t-14 34.5t-34 14zM507.5 73q-38.5 0 -66 27.5t-27.5 66t27.5 66t66 27.5t66 -27.5t27.5 -66t-27.5 -66t-66 -27.5zM507 215q-20 0 -34 -14t-14 -34.5t14 -34.5t34 -14t34.5 14t14.5 34.5t-14.5 34.5
t-34.5 14zM662.5 73q-38.5 0 -66 27.5t-27.5 66t27.5 66t66 27.5t66 -27.5t27.5 -66t-27.5 -66t-66 -27.5zM663 215q-20 0 -34.5 -14t-14.5 -34.5t14.5 -34.5t34.5 -14t34 14t14 34.5t-14 34.5t-34 14zM818.5 73q-38.5 0 -66 27.5t-27.5 66t27.5 66t66 27.5t66 -27.5
t27.5 -66t-27.5 -66t-66 -27.5zM818 215q-20 0 -34 -14t-14 -34.5t14 -34.5t34 -14t34.5 14t14.5 34.5t-14.5 34.5t-34.5 14zM799 343q-18 0 -33.5 7t-23 13.5t-18.5 18.5q-12 14 -20.5 19.5t-21 5.5t-20.5 -5.5t-20 -19.5q-11 -12 -18.5 -18.5t-23 -13.5t-33.5 -7t-33.5 7
t-22.5 13.5t-18 18.5q-13 14 -21 19.5t-20.5 5.5t-21 -5.5t-20.5 -19.5q-11 -12 -18.5 -18.5t-23 -13.5t-33.5 -7t-33.5 7t-22.5 13.5t-18 18.5q-13 14 -21 19.5t-20 5.5q-10 0 -16.5 6.5t-6.5 16t6.5 16t16.5 6.5q18 0 33.5 -7t22.5 -14t18 -19q13 -14 21 -19t20.5 -5
t20.5 5t21 19q11 12 18 19t22.5 14t33.5 7t33.5 -7t23 -14t18.5 -19q12 -14 20 -19t21 -5t21 5t20 19q11 12 18.5 19t23 14t33.5 7t33.5 -7t22.5 -14t18 -19q13 -14 21 -19t21 -5q9 0 15.5 -6.5t6.5 -16t-6.5 -16t-15.5 -6.5z" />
    <glyph glyph-name="pisa" unicode="&#xe692;" 
d="M914 790l-62 -147q-34 16 -69.5 3.5t-52 -47t-3.5 -70.5t48 -52l7 -3l-53 -124q-31 37 -79 37q-43 0 -74 -30.5t-31 -73.5t30.5 -74t73.5 -31l7 -3l-54 -129q-52 0 -102 12l6 7q15 34 2 69.5t-47.5 51.5t-70 3t-51.5 -48h-7q-74 60 -117 147.5t-43 187.5l250 106l1 -1
q14 -36 49 -50.5t70 -0.5t50 49t1 70l-2 4zM449 365q0 33 -23 56.5t-56 23.5t-56.5 -23.5t-23.5 -56.5t23.5 -56t56.5 -23t56 23t23 56zM852 643l-70 -169l-7 3q-35 16 -48 52t3.5 70.5t52 47t69.5 -3.5zM729 350l-73 -175l-7 3q-43 0 -73.5 31t-30.5 74t31 73.5t74 30.5
q48 0 79 -37zM593 649q14 -35 -1 -70t-50 -49t-70 0.5t-49 50.5l-1 1l169 71zM460.5 186q34.5 -16 47.5 -51.5t-2 -69.5l-6 -7q-93 23 -168 83h7q16 35 51.5 48t70 -3zM370 445q33 0 56 -23.5t23 -56.5t-23 -56t-56 -23t-56.5 23t-23.5 56t23.5 56.5t56.5 23.5zM532 -47
q-92 0 -175.5 36t-144.5 96.5t-96.5 144.5t-35.5 176q0 9 6.5 15.5t15.5 6.5t15.5 -6.5t6.5 -15.5q0 -111 55 -205t149 -148.5t204 -54.5q9 0 16 -6.5t7 -15.5t-7 -16t-16 -7zM602 23v0q-55 0 -108 13q-97 24 -176 87q-80 65 -124.5 157.5t-44.5 195.5q0 9 7 15.5t16 6.5
t15.5 -6.5t6.5 -15.5q0 -93 40 -176t112 -142q71 -57 159 -78q48 -12 97 -12v0q9 0 15.5 -6.5t6.5 -16t-6.5 -16t-15.5 -6.5zM602 23q-4 0 -9 2q-13 6 -13 21q0 4 1 8l312 745q6 14 21 14q9 0 15.5 -6.5t6.5 -16.5q0 -4 -2 -9l-311 -744q-6 -14 -21 -14v0zM172 453
q-9 0 -16 7t-7 16q0 15 14 20l742 315q4 1 9 1q15 0 20 -13q2 -4 2 -9q0 -15 -14 -21l-741 -314q-5 -2 -9 -2zM649 155v0q-53 1 -90 38t-36.5 89.5t37.5 89.5t89 37h1q24 0 52.5 -13t43.5 -32q6 -6 6 -15t-6.5 -15.5t-16.5 -6.5t-16 8h-1q-10 12 -28 20.5t-34 8.5
q-34 1 -58.5 -23t-24.5 -58t24 -58.5t58 -24.5q9 0 15.5 -6.5t6.5 -15.5v0q0 -10 -6.5 -16.5t-15.5 -6.5zM370 263q-42 0 -72 30t-30 72t30 72t72 30t72 -30t30 -72t-30 -72t-72 -30zM369.5 422q-23.5 0 -40 -16.5t-16.5 -40.5t16.5 -40.5t40 -16.5t40.5 16.5t17 40.5
t-17 40.5t-40.5 16.5zM508 501q-24 0 -45 9q-43 18 -61 62q-2 4 -2 9q0 9 6.5 15.5t16.5 6.5q15 0 20 -14q5 -11 16 -22t22 -16q26 -11 53 0q11 4 22 15t15 22q6 13 6 27q0 13 -5 26q-2 4 -2 8q0 10 6.5 16.5t16.5 6.5q15 0 20 -14q18 -44 -0.5 -87.5t-62.5 -61.5
q-20 -8 -42 -8zM506 42q-10 0 -16.5 6.5t-6.5 16.5q0 5 2 9q12 26 2 53t-36 39t-53 2t-39 -36q-6 -13 -20 -13q-5 0 -9 2q-13 6 -13 20q0 5 2 10q19 43 63.5 59t87.5 -3.5t59.5 -64t-3.5 -87.5q-6 -13 -20 -13v0zM775 455q-5 0 -10 2q-43 20 -59 64.5t4 87t64.5 58.5
t86.5 -3q14 -6 14 -21q0 -9 -6.5 -15.5t-16.5 -6.5q-5 0 -9 2q-26 12 -53 2.5t-39 -35.5t-2.5 -53t35.5 -40q13 -6 13 -20q0 -9 -6.5 -15.5t-15.5 -6.5v0z" />
    <glyph glyph-name="lizhi" unicode="&#xe693;" 
d="M739 173zM574 173q0 -68 48.5 -116.5t117 -48.5t116.5 48.5t48 116.5t-48 116.5t-116.5 48.5t-117 -48.5t-48.5 -116.5zM759 665q12 -8 14.5 -22.5t-6.5 -26.5l-18 -25q-9 -12 -23 -14.5t-26 5.5l-191 138q-12 8 -14.5 22.5t5.5 25.5l19 26q9 12 23 14.5t26 -6.5z
M306.5 342q79.5 0 135.5 -56.5t56 -135.5t-56 -135.5t-135.5 -56.5t-135.5 56.5t-56 135.5t56 135.5t135.5 56.5zM306.5 -64q-88.5 0 -151 63t-62.5 151.5t62.5 151t151 62.5t151.5 -62.5t63 -151t-63 -151.5t-151.5 -63zM307 319q-70 0 -120 -49.5t-50 -119.5t50 -119.5
t120 -49.5t119.5 49.5t49.5 119.5t-49.5 119.5t-119.5 49.5zM739.5 -14q-77.5 0 -132.5 55t-55 132.5t55 132.5t132.5 55t132.5 -55t55 -132.5t-55 -132.5t-132.5 -55zM739 316q-59 0 -100.5 -42t-41.5 -101t41.5 -101t100.5 -42t101 42t42 101t-42 101t-101 42zM307 321v0
q-10 0 -16.5 7t-6.5 16q0 88 43.5 163t118.5 118.5t163 43.5q9 0 16 -6.5t7 -16t-7 -16t-16 -6.5q-116 0 -198 -82t-82 -198q0 -9 -6.5 -16t-15.5 -7zM778 316h-6q-107 29 -163 125.5t-27 203.5q2 7 8 12t13 5q10 0 16.5 -6.5t6.5 -16.5q0 -3 -1 -5q-24 -90 22.5 -170
t136.5 -104q7 -2 12 -8.5t5 -13.5q0 -9 -7 -15.5t-16 -6.5v0zM720 554q-18 0 -33 10l-191 137q-20 14 -23.5 37.5t9.5 42.5l19 26q7 10 20.5 17t26.5 7v0q18 0 33 -11l191 -137q19 -13 23 -36.5t-10 -43.5l-18 -26q-17 -23 -47 -23zM548 786h-1q-6 0 -10 -5l-18 -26
q-3 -3 -3 -7q0 -6 6 -10l191 -137q3 -3 7 -3v0q7 0 10 6l19 26q2 3 2 7q0 6 -5 10l-191 137q-3 2 -7 2v0zM189.5 138q-9.5 0 -16 6.5t-6.5 15.5q0 54 38 92t91 38q9 0 16 -6.5t7 -16t-7 -16t-16 -6.5q-35 0 -59.5 -25t-24.5 -60q0 -9 -6.5 -15.5t-16 -6.5z" />
    <glyph glyph-name="kaochuan" unicode="&#xe694;" 
d="M921 624q30 -30 29.5 -73t-30.5 -73t-73 -29.5t-73 31t-29.5 73t31 72.5t73 29.5t72.5 -30.5zM601 308l-59 60q-7 7 0 13l120 118q2 3 6 3t7 -3l59 -60l58 -59q3 -3 3 -7t-3 -6l-119 -118q-3 -3 -6.5 -3t-6.5 3zM555 263l28 -29v-81l-58 -57h-82l-28 29l-29 29l1 81
l58 58l81 -1zM531.5 761q36.5 -22 47 -63.5t-11.5 -78t-63.5 -47t-78 11.5t-47 63t11.5 78t63.5 47.5t78 -11.5zM396 535l72 -43q8 -5 4 -13l-87 -144q-2 -5 -7 -5q-3 0 -5 2l-72 43l-72 43q-5 2 -5 8q0 2 1 4l87 145q4 8 12 3zM302 298l20 -78l-41 -70l-79 -20l-35 20
l-35 21l-20 79l42 70l78 20l36 -21zM58 -55q-10 0 -16.5 6.5t-6.5 15.5q0 6 3 11l110 184q6 11 19 11q6 0 12 -3q10 -7 10 -20q0 -6 -3 -11l-109 -184q-7 -10 -19 -10v0zM268 297q-10 0 -16.5 6.5t-6.5 15.5q0 6 3 12l34 55q6 11 19 11q9 0 15.5 -6.5t6.5 -15.5q0 -7 -3 -12
l-33 -55q-7 -11 -19 -11v0zM396 512q-9 0 -15.5 6.5t-6.5 16.5v0q0 6 3 11l29 49q7 11 20 11q9 0 15.5 -6.5t6.5 -15.5q0 -6 -3 -12l-29 -48q-7 -12 -20 -12v0zM531 738q-9 0 -15.5 6.5t-6.5 16.5q0 6 3 11l28 47q6 10 19 10q9 0 15.5 -6.5t6.5 -15.5q0 -6 -3 -11l-28 -47
q-6 -11 -19 -11v0zM478 547q-34 0 -64 18q-44 26 -57 76.5t14 95.5q17 28 46 44.5t62 16.5q34 0 64 -18q44 -27 57 -77t-14 -95q-17 -28 -46 -44.5t-62 -16.5zM479 753q-46 0 -70 -39q-17 -29 -8.5 -61.5t36.5 -49.5q19 -11 41 -11q46 0 70 39q17 29 8.5 61t-36.5 50
q-19 11 -41 11zM378 308q-9 0 -17 5l-144 86q-11 6 -14 19q-1 4 -1 8q0 8 4 16l86 144q10 15 27 15q9 0 17 -4l144 -86q11 -7 14 -19.5t-3 -23.5l-86 -145q-10 -15 -27 -15zM251 430l122 -72l73 121l-122 73zM202 107q-6 0 -12 4l-70 41q-8 5 -10 14l-20 79v5q0 6 3 12
l41 70q5 8 14 10l79 20h5q7 0 12 -3l70 -41q8 -5 10 -14l20 -79q1 -3 1 -5q0 -7 -4 -12l-41 -70q-5 -8 -14 -10l-79 -20q-3 -1 -5 -1v0zM151 186l54 -32l61 15l32 54l-15 61l-54 32l-61 -15l-32 -54zM263 -47q-9 0 -16 6.5t-7 15.5t7 16l152 150q7 6 16 6t15.5 -6.5
t6.5 -15.5t-6 -16l-152 -150q-7 -6 -16 -6v0zM555 240q-9 0 -16 7t-7 16t7 16l47 46q6 6 15.5 6t16 -6.5t6.5 -15.5t-7 -16v0l-46 -46q-7 -7 -16 -7v0zM734 417v0q-10 0 -16.5 6.5t-6.5 16t7 15.5l41 40q6 7 15.5 7t16 -6.5t6.5 -16t-7 -16.5l-41 -40q-6 -6 -15 -6v0z
M921 602v0q-9 0 -15.5 6.5t-6.5 15.5t6 16l39 38q6 6 15.5 6t16 -6.5t6.5 -15.5t-7 -16l-38 -38q-7 -6 -16 -6v0zM848 426q-53 0 -90 38q-36 37 -35.5 89t37.5 88q36 36 88 36t89 -37q36 -37 36 -89t-37 -89q-37 -36 -88 -36zM848 632h-1q-13 0 -29.5 -6.5t-26.5 -16.5
q-24 -23 -24 -56.5t23 -57.5q24 -24 58 -24v0q14 0 30.5 7t25.5 16q24 24 24 57.5t-23 56.5q-24 24 -57 24zM666 224v0q-13 0 -22 9l-118 120q-9 9 -9 22v0q0 13 9 22l120 118q9 9 22 9v0v0q13 0 22 -9l118 -120q10 -9 10 -22h-1q0 -13 -9 -22l-119 -118q-10 -9 -23 -9v0z
M567 375l99 -101l101 99l-99 101zM525 73v0l-82 1q-9 0 -16 7l-57 57q-6 7 -6 16v0v82q0 9 7 15l58 58q6 6 16 6l81 -1q9 0 16 -6l57 -58q7 -7 7 -16v0l-1 -81q0 -10 -7 -16l-58 -57q-6 -7 -15 -7v0zM453 119l63 -1l44 44l1 63l-44 45h-63l-45 -44v-63z" />
    <glyph glyph-name="mianguan" unicode="&#xe695;" 
d="M328 20l37 -99h281l26 99l-155 -27zM387 774h196l-15 -67l32 -57l34 -53l-34 -54l-33 -44l-8 -33l-205 -3l18 43l28 24l23 38l18 40l-25 31l-29 30l-20 49zM470 2q-87 0 -160.5 52t-116.5 141.5t-43 195.5v86l141 -14l140 14l140 -14l141 14l140 -14v-72
q0 -106 -42.5 -195.5t-116.5 -141.5t-160 -52h-63zM138 399l146 -72l150 72l145 -72l146 72l115 -72v-88l-141 51l-137 -57l-131 59l-128 -53l-153 67zM533 -20h-63q-93 0 -172 45.5t-124.5 124.5t-45.5 172v141q0 9 6.5 16t15.5 7t16 -7t7 -16v-141q0 -123 87 -210.5
t210 -87.5h63q122 0 209.5 87.5t87.5 210.5v141q0 9 6.5 16t15.5 7t16 -7t7 -16v-141q0 -93 -46 -172t-125 -124.5t-171 -45.5zM851 441h-702q-9 0 -15.5 6.5t-6.5 15.5t6.5 16t15.5 7h702q10 0 16.5 -7t6.5 -16t-6.5 -15.5t-16.5 -6.5zM644 -96h-286q-7 0 -13 4.5t-8 11.5
l-33 102q-1 4 -1 7q0 7 4.5 13t11.5 8q3 1 6 1q7 0 13.5 -4.5t8.5 -10.5l27 -87h254l28 87q2 6 8 10.5t13 4.5q3 0 7 -1q6 -2 10.5 -8t4.5 -13q0 -3 -1 -7l-32 -102q-2 -7 -8.5 -11.5t-13.5 -4.5zM852 306q-5 0 -9 2l-131 60l-131 -60q-5 -2 -10 -2t-9 2l-131 60l-131 -60
q-5 -2 -9.5 -2t-9.5 2l-140 64q-13 6 -13 20q0 9 6.5 16t15.5 7q5 0 9 -2l132 -60l131 60q4 2 9 2t9 -2l131 -60l131 60q5 2 10 2t9 -2l140 -64q14 -6 14 -21q0 -9 -7 -15.5t-16 -6.5v0zM836 208q-5 0 -10 2l-125 60l-126 -60q-4 -2 -9.5 -2t-9.5 2l-126 60l-125 -60
q-5 -2 -10 -2t-9 2l-136 64q-12 7 -12 21q0 9 6.5 15.5t15.5 6.5q5 0 9 -2l126 -60l126 60q4 2 9 2t10 -2l125 -60l126 60q5 2 10 2t9 -2l135 -64q13 -6 13 -20q0 -10 -6.5 -16.5t-15.5 -6.5v0zM368 449v0q-10 0 -16.5 6.5t-6.5 15.5q0 19 7 35.5t13.5 24t18.5 19.5
q9 9 13.5 14t8 13.5t3.5 19t-3.5 19t-8 13.5t-13.5 14q-12 12 -18.5 19.5t-13.5 24t-7 35t7 35t13.5 24t18.5 19.5l1 1q13 13 18.5 22t5.5 24q0 9 6.5 15.5t16 6.5t16 -6.5t6.5 -15.5q0 -19 -7 -35.5t-13.5 -24t-17.5 -18.5l-1 -1q-9 -9 -13 -14t-8 -13.5t-4 -19t4 -19
t8 -13.5t13 -14q12 -12 18.5 -19.5t13.5 -24t7 -35.5t-7 -35t-13.5 -24t-18.5 -19q-9 -9 -13 -14t-8 -13.5t-4 -19.5q0 -9 -6.5 -15.5t-15.5 -6.5v0zM464 449v0q-10 0 -16.5 6.5t-6.5 15.5q0 19 7 35.5t13.5 24t18.5 19.5q9 9 13.5 14t8 13.5t3.5 19t-3.5 19t-8 13.5
t-13.5 14q-12 12 -18.5 19.5t-13.5 24t-7 35t7 35t13.5 24t18.5 19.5l1 1q13 13 18.5 22t5.5 24q0 9 6.5 15.5t16 6.5t16 -6.5t6.5 -15.5q0 -19 -7 -35.5t-13.5 -24t-17.5 -18.5l-1 -1q-9 -9 -13.5 -14t-8 -13.5t-3.5 -19t3.5 -19t8 -13.5t13.5 -14q12 -12 18.5 -19.5
t13.5 -24t7 -35.5t-7 -35t-13.5 -24t-18.5 -19q-9 -9 -13.5 -14t-8 -13.5t-3.5 -19.5q0 -9 -6.5 -15.5t-15.5 -6.5v0zM559 449v0q-9 0 -15.5 6.5t-6.5 15.5q0 19 7 35.5t13.5 24t18.5 19.5q9 9 13.5 14t8 13.5t3.5 19t-3.5 19t-8 13.5t-13.5 14q-12 12 -18.5 19.5t-13.5 24
t-7 35t7 35t13.5 24t18.5 19.5v1q14 13 19.5 22t5.5 24q0 9 6.5 15.5t16 6.5t16 -6.5t6.5 -15.5q0 -19 -7 -35.5t-13.5 -24t-17.5 -18.5l-1 -1q-9 -9 -13.5 -14t-8 -13.5t-3.5 -19t3.5 -19t8 -13.5t13.5 -14q12 -12 18.5 -19.5t13.5 -24t7 -35.5t-7 -35t-13.5 -24t-18.5 -19
q-9 -9 -13.5 -14t-8 -13.5t-3.5 -19.5q0 -9 -6.5 -15.5t-16.5 -6.5v0zM942 762h-683q-9 0 -15.5 6.5t-6.5 16t6.5 16t15.5 6.5h683q9 0 15.5 -6.5t6.5 -16t-6.5 -16t-15.5 -6.5zM364 696h-105q-9 0 -15.5 6.5t-6.5 16t6.5 16t15.5 6.5h105q10 0 16.5 -6.5t6.5 -16t-6.5 -16
t-16.5 -6.5zM947 696h-384q-9 0 -15.5 6.5t-6.5 16t6.5 16t15.5 6.5h384q10 0 16.5 -6.5t6.5 -16t-6.5 -16t-16.5 -6.5z" />
    <glyph glyph-name="tianpin" unicode="&#xe696;" 
d="M484 689l103 62q230 -50 356 -175h-1l-866 -131zM942 376v-116l-866 -131v202q27 2 50 -6.5t37.5 -20.5t38 -20t51.5 -4q23 3 40.5 13.5t28.5 23l22 25t28.5 23t40.5 13.5q29 4 53 -4.5t38 -20.5t38 -20.5t53 -4.5q23 3 40.5 13.5t28.5 23t22 25.5t28.5 23t40.5 13
q29 4 53 -4.5t38 -20.5t38 -20.5t53 -4.5h5zM942 576v-200h-5q-29 -4 -53 4.5t-38 20.5t-38 20.5t-53 4.5q-23 -3 -40.5 -13t-28.5 -23t-22 -25.5t-28.5 -23t-40.5 -13.5q-29 -4 -53 4.5t-38 20.5t-38 20.5t-53 4.5q-23 -3 -40.5 -13.5t-28.5 -23l-22 -25t-28.5 -23
t-40.5 -13.5q-28 -4 -51.5 4t-38 20t-37.5 20.5t-50 6.5v114zM76 107q-9 0 -15.5 6.5t-6.5 15.5v316q0 8 5.5 14.5t13.5 7.5l866 131h3q10 0 16.5 -6.5t6.5 -15.5v-316q0 -8 -5.5 -14.5t-13.5 -7.5l-866 -131h-4zM99 425v-270l821 124v271zM77 422h-1q-9 0 -15.5 6.5
t-6.5 16.5q0 12 11 19l408 244l102 62q6 3 12 3q9 0 15.5 -6.5t6.5 -15.5q0 -13 -11 -20l-102 -61l-408 -245q-5 -3 -11 -3zM943 553v0q-9 0 -15 7q-1 0 -1 1q-121 119 -345 168q-7 1 -12 7.5t-5 14.5q0 9 6.5 15.5t15.5 6.5q2 0 5 -1q114 -24 209 -70.5t158 -109.5v0v0
q7 -7 7 -16.5t-6.5 -16t-16.5 -6.5zM68 352q3 1 6 1v0q22 2 42.5 -2.5t30.5 -10t27 -16.5q15 -10 23 -14t22 -7t30.5 -1t29.5 9t19.5 13t17.5 20q14 16 23 24t28 18.5t43 14t45.5 -1t32.5 -10.5t28 -17q15 -10 23 -14t22 -7t30.5 -0.5t29 9t19.5 13t18 19.5q14 16 22.5 24.5
t28 18.5t43.5 13.5t45.5 -1t32.5 -10.5t28 -17q15 -9 23 -13.5t22 -7.5t31 -1q1 1 3 1q9 0 15.5 -6.5t6.5 -16.5q0 -8 -5.5 -14.5t-13.5 -7.5q-24 -3 -45.5 1.5t-32.5 10t-28 17.5q-15 9 -23 13.5t-22 7.5t-30.5 0.5t-29.5 -9.5t-19.5 -13t-17.5 -19q-14 -16 -23 -24.5
t-28.5 -19t-43 -13.5t-45 1.5t-32.5 10t-28 16.5q-15 10 -23 14t-22 7t-30.5 1t-29.5 -9t-19.5 -13t-17.5 -20q-14 -15 -23 -23.5t-28 -19t-43 -13.5q-11 -2 -22 -2q-38 0 -84 30q-14 9 -22 13.5t-21 7.5t-28 1h-1h-3zM76 -6q-9 0 -15.5 6.5t-6.5 16.5q0 8 5.5 14.5
t13.5 7.5l866 131h4q9 0 15.5 -6.5t6.5 -15.5q0 -8 -5.5 -14.5t-13.5 -7.5l-866 -131q-2 -1 -4 -1zM587 629q-4 0 -8 1l-103 38q-14 5 -14 21q0 9 6.5 15.5t15.5 6.5q4 0 8 -1l103 -38v0q9 0 15.5 -6.5t6.5 -15.5t-6.5 -15.5t-15.5 -6.5q-4 0 -8 1z" />
    <glyph glyph-name="xican" unicode="&#xe697;" 
d="M877 550v-1l-136 -94l12 -525h-99l12 525l-138 94v1h-1l15 281h55v-212h70l5 212h60l5 -212h70v212h57zM322 835l31 -905h-115l16 535h-52v201q0 57 32 103t83 67v0zM316 836h1q-51 -21 -83 -67t-32 -103v-201h-63v189q0 74 52 127t125 55zM753 -93h-99v0q-9 0 -15.5 7
t-6.5 16v0l11 514l-128 86q-3 2 -6 6q-4 6 -4 14v1l15 281q0 9 6.5 15t15.5 6h55v0q10 0 16.5 -6.5t6.5 -15.5v-190h25l4 191q1 9 7.5 15t15.5 6h60q9 0 15.5 -6t6.5 -15l5 -191h25v190q0 9 6.5 15.5t16.5 6.5h57v0q9 0 15.5 -6t6.5 -15l13 -281v-1v-1q0 -12 -10 -19
l-125 -86l11 -514v0q0 -9 -6.5 -16t-15.5 -7zM677 -48h53l-11 503v0q0 12 9 19l126 86l-11 249h-14v-190q0 -9 -6.5 -16t-15.5 -7h-70q-9 0 -15.5 6.5t-6.5 15.5l-5 191h-16l-5 -191q0 -9 -6.5 -15.5t-15.5 -6.5h-70v0q-9 0 -15.5 7t-6.5 16v190h-12l-13 -248l128 -87
q10 -7 10 -19v0zM353 -93h-115q-9 0 -15.5 7t-6.5 16v0l15 536q1 9 7.5 15.5t15.5 6.5v0q9 0 15.5 -7t6.5 -16v0l-15 -513h69l-30 883v0q0 10 6.5 16.5t15.5 6.5t15.5 -6.5t6.5 -15.5l32 -905v-1q0 -9 -7 -16t-16 -7zM254 443h-115q-9 0 -15.5 6.5t-6.5 16t6.5 16t15.5 6.5
h115q9 0 15.5 -6.5t6.5 -16t-6.5 -16t-15.5 -6.5zM317 813q-9 0 -15.5 6.5t-6.5 16.5q0 9 6 15.5t15 6.5h5q9 0 16 -6.5t7 -16t-7 -16t-16 -6.5h-4v0zM139.5 443q-9.5 0 -16 6.5t-6.5 15.5v189q0 83 58 142.5t141 61.5v0h1q9 0 15.5 -6.5t6.5 -16t-6.5 -16t-15.5 -6.5v0
q-65 -2 -110 -48t-45 -111v-189q0 -9 -6.5 -15.5t-16 -6.5zM201.5 446q-9.5 0 -16 6.5t-6.5 15.5v198q0 64 35.5 115.5t94.5 74.5q4 2 8 2v0v0q9 0 15.5 -6.5t6.5 -15.5q0 -16 -14 -21q-46 -19 -73.5 -59t-27.5 -90v-198q0 -9 -6.5 -15.5t-16 -6.5z" />
    <glyph glyph-name="pijiu" unicode="&#xe698;" 
d="M507 105q0 -9 -6 -15t-15 -6t-15.5 6t-6.5 15t6.5 15.5t15.5 6.5t15 -6.5t6 -15.5zM598 390.5q6 -5.5 6 -14t-6 -14t-14 -5.5t-14 5.5t-6 14.5v0q0 8 6 13.5t14 5.5v0q8 0 14 -5.5zM291.5 444.5q8.5 -8.5 8.5 -20t-8.5 -20t-19.5 -8.5v0q-12 0 -20 8.5t-8 19.5v1v0
q0 11 8 19q8 9 19.5 9t20 -8.5zM468 355.5q13 -13.5 13 -32.5v0q0 -19 -13 -32t-32 -13t-32 13t-13 32v0q0 19 13 32.5t32 13.5v0q19 0 32 -13.5zM328.5 236.5q9.5 -9.5 9.5 -23.5v0q0 -14 -9.5 -23.5t-23.5 -9.5t-23.5 9.5t-9.5 23.5v0q0 14 9.5 23.5t23.5 9.5v0
q14 0 23.5 -9.5zM857 401v-227q0 -34 -23 -57t-57 -23h-90v35h43q38 0 65 27t27 65v123q0 38 -27 65t-65 27h-43v44h90q34 0 57 -23t23 -56zM665 503v0v-1v1zM657 595l-6 -6q-3 -2 -6 -5q4 8 12 11zM642 151v-80q0 -32 -23.5 -55.5t-56.5 -23.5h-266q-33 0 -56.5 23.5
t-23.5 56.5v473h99q7 -21 23 -36t38 -19q-3 -6 -3 -12q0 -11 7.5 -18t17.5 -7t17.5 7t7.5 18v0q0 9 -6 15q15 5 26 15q16 -30 46.5 -48.5t66.5 -18.5q49 0 86 34v-324zM604 376.5q0 8.5 -6 14t-14 5.5v0q-8 0 -14 -5.5t-6 -13.5v0q0 -9 6 -14.5t14 -5.5t14 5.5t6 14z
M501 90.5q6 6.5 6 15t-6 15t-15 6.5v0q-9 0 -15.5 -6.5t-6.5 -15t6.5 -15t15.5 -6.5t15 6.5zM481 323q0 19 -13 32.5t-32 13.5v0q-19 0 -32 -13.5t-13 -32.5v0q0 -19 13 -32t32 -13v0q19 0 32 13t13 32zM338 213q0 14 -9.5 23.5t-23.5 9.5v0v0q-14 0 -23.5 -9.5t-9.5 -23.5
t9.5 -23.5t23.5 -9.5v0q14 0 23.5 9.5t9.5 23.5zM300 424.5q0 11.5 -8.5 20t-20 8.5t-19.5 -8.5t-8 -19.5v0q0 -12 8 -20.5t20 -8.5v0q11 0 19.5 8.5t8.5 20zM571 642q9 0 15.5 6.5t6.5 15.5q0 11 7.5 18.5t18.5 7.5v0q9 0 16.5 -6.5t8.5 -15.5v-4q0 -9 6.5 -15.5t15.5 -6.5
q8 0 14 4q15 -6 15 -22q0 -11 -7.5 -18t-17.5 -7q-7 0 -13 -4q-9 -4 -13 -13q-5 -4 -5 -14q0 -34 -24.5 -58.5t-58.5 -24.5t-58.5 24t-24.5 58v1q0 10 -7 16.5t-16 6.5q-5 0 -10 -2q-15 -5 -15 -22v0q0 -14 -10 -24t-24 -10t-24 10t-10 24v0q0 9 -6.5 16t-16.5 7h-140
q-3 0 -5 -1h-2q-11 0 -18 7.5t-7 17.5t7 17.5t18 7.5q8 0 14.5 5.5t7.5 13.5v0q1 3 1 6q0 14 10 24t24 10t24 -10t10 -24q0 -9 6.5 -15.5t15.5 -6.5t15.5 6.5t6.5 15.5q0 46 32.5 78t77.5 32t77.5 -32t32.5 -78q0 -9 6.5 -15.5t15.5 -6.5h4h3zM194 545v0h-3h3zM189 589v0
q-13 -3 -17 -16q4 14 18 16h-1zM777 525h-90v31q19 5 32 18q21 21 21 49.5t-21 49.5q-17 17 -42 20q-4 18 -20.5 30t-37.5 12v0q-24 0 -43 -15q-17 44 -56 71.5t-88 27.5q-46 0 -84.5 -25.5t-56.5 -66.5q-21 16 -47 16v0q-33 0 -56 -23q-20 -20 -23 -47q-12 6 -27 -10
q-21 -20 -21 -49q0 -25 15.5 -44t38.5 -24v-474q0 -51 36.5 -87.5t88.5 -36.5h266q45 0 79.5 28.5t43.5 72.5h92q52 0 88.5 36.5t36.5 88.5v227q0 51 -36.5 87.5t-88.5 36.5zM194 545h-3h3v0zM642 413v-342q0 -32 -23.5 -55.5t-56.5 -23.5h-266q-33 0 -56.5 23.5t-23.5 56.5
v473h99q7 -21 23 -36t38 -19q-3 -6 -3 -12q0 -11 7.5 -18t17.5 -7t17.5 7t7.5 18v0q0 9 -6 15q15 5 26 15q16 -30 46.5 -48.5t66.5 -18.5q49 0 86 34v-62zM670 599q-7 0 -13 -4l-6 -6q-3 -2 -6 -5q-6 -7 -6 -16q0 -34 -24.5 -58.5t-58.5 -24.5t-58.5 24t-24.5 58v1
q0 10 -7 16.5t-16 6.5q-5 0 -10 -2q-15 -5 -15 -22v0q0 -14 -10 -24t-24 -10t-24 10t-10 24v0q0 9 -6.5 16t-16.5 7h-140q-3 0 -5 -1v0q-13 -3 -17 -16q4 14 18 16h-3q-11 0 -18 7.5t-7 17.5t7 17.5t18 7.5q8 0 14.5 5.5t7.5 13.5v0q1 3 1 6q0 14 10 24t24 10t24 -10t10 -24
q0 -9 6.5 -15.5t15.5 -6.5t15.5 6.5t6.5 15.5q0 46 32.5 78t77.5 32t77.5 -32t32.5 -78q0 -9 6.5 -15.5t15.5 -6.5h4h3q9 0 15.5 6.5t6.5 15.5q0 11 7.5 18.5t18.5 7.5v0q9 0 16.5 -6.5t8.5 -15.5v-4q0 -9 6.5 -15.5t15.5 -6.5q8 0 14 4q15 -6 15 -22q0 -11 -7.5 -18
t-17.5 -7zM687 391h43q20 0 33.5 -14t13.5 -33v-123q0 -20 -13.5 -33.5t-33.5 -13.5h-43v217zM857 174q0 -34 -23 -57t-57 -23h-90v35h43q38 0 65 27t27 65v123q0 38 -27 65t-65 27h-43v44h90q34 0 57 -23t23 -56v-227z" />
    <glyph glyph-name="yinliao" unicode="&#xe699;" 
d="M629 348v0q9 0 9 -8.5t-9 -8.5v0q-8 0 -8 8.5t8 8.5zM638 144q0 -7 -5 -12t-12.5 -5t-12.5 5t-4.5 12t5.5 11.5t11.5 4.5t11.5 -4.5t6 -11.5v0zM489 30v0q-9 0 -15 6t-6 14q0 9 6 15t14 6q9 0 15 -6t6 -15q0 -8 -6 -14t-14 -6v0zM373 202q0 -11 7.5 -18.5t18 -7.5t18 7.5
t7.5 18.5v0q0 11 -7.5 18.5t-18 7.5t-18 -7.5t-7.5 -18.5v0zM483 310q10 0 16.5 -6.5t6.5 -15.5v0q0 -10 -6.5 -16.5t-16 -6.5t-16 6.5t-6.5 16t6.5 16t15.5 6.5v0zM689 362l-20 -419h-323l-21 458l1 -1q8 -13 13.5 -20t18 -15t28 -8t28 8t18 15t13.5 20q14 21 22 21t22 -21
q8 -13 13.5 -20t18 -15t27.5 -8t28 8t18.5 15t13.5 20q14 21 22 21t21 -21q20 -30 38 -38zM660 340q0 13 -9 22t-22 9t-22 -9t-9 -22t9 -22t22 -9t22 9t9 22zM660 143.5q0 16.5 -11.5 28t-28 11.5t-28 -11.5t-11.5 -28t11.5 -28t28 -11.5t28 11.5t11.5 28zM532 50
q0 18 -13 31t-30.5 13t-30.5 -13t-13 -31t13 -30.5t30.5 -12.5t30.5 12.5t13 30.5zM532 288q0 20 -14.5 34t-34 14t-34 -14t-14.5 -34t14.5 -34.5t34 -14.5t34 14.5t14.5 34.5zM447 202q0 20 -14 34.5t-34 14.5t-34.5 -14.5t-14.5 -34.5t14.5 -34.5t34.5 -14.5t34 14.5
t14 34.5zM629 371q13 0 22 -9t9 -22t-9 -22t-22 -9t-22 9t-9 22t9 22t22 9zM643 339.5q0 5.5 -4 10t-10 4.5v0q-6 0 -10 -4.5t-4 -10t4 -9.5t10 -4v0q6 0 10 4t4 9.5zM620.5 183q16.5 0 28 -11.5t11.5 -28t-11.5 -28t-28 -11.5t-28 11.5t-11.5 28t11.5 28t28 11.5z
M620.5 124q8.5 0 14 5.5t5.5 14t-5.5 14t-14 5.5t-14 -5.5t-5.5 -14t5.5 -14t14 -5.5zM629 331q9 0 9 8.5t-9 8.5v0q-8 0 -8 -8.5t8 -8.5v0zM629 354q6 0 10 -4.5t4 -10t-4 -9.5t-10 -4t-9.5 4t-3.5 9.5t3.5 9.5t9.5 5v0zM603 144q0 -7 5 -12t12.5 -5t12.5 5t5 12t-5 12
t-12.5 5t-12.5 -5t-5 -12zM601 143.5q0 8.5 5.5 14t14 5.5t14 -5.5t5.5 -14t-5.5 -14t-14 -5.5t-14 5.5t-5.5 14zM586 860l-1 -1q0 1 1 1zM488.5 94q17.5 0 30.5 -13t13 -31t-13 -30.5t-30.5 -12.5t-30.5 12.5t-13 30.5t13 31t30.5 13zM510 50q0 9 -6 15.5t-15.5 6.5
t-15.5 -6.5t-6 -15.5t6 -15.5t15.5 -6.5t15.5 6.5t6 15.5zM483.5 336q19.5 0 34 -14t14.5 -34t-14.5 -34.5t-34 -14.5t-34 14.5t-14.5 34.5t14.5 34t34 14zM509 287.5q0 10.5 -7.5 18.5t-18 8t-18 -8t-7.5 -18.5t7.5 -18t18 -7.5t18 7.5t7.5 18zM488 71q-8 0 -14 -6t-6 -15
q0 -8 6 -14t15 -6q8 0 14 6t6 14q0 9 -6 15t-15 6zM467 50q0 9 6 15.5t15.5 6.5t15.5 -6.5t6 -15.5t-6 -15.5t-15.5 -6.5t-15.5 6.5t-6 15.5zM458 287.5q0 10.5 7.5 18.5t18 8t18 -8t7.5 -18.5t-7.5 -18t-18 -7.5t-18 7.5t-7.5 18zM483 310v0q-9 0 -15.5 -6.5t-6.5 -16
t6.5 -16t16 -6.5t16 6.5t6.5 16.5v0q0 9 -6.5 15.5t-16.5 6.5zM399 251q20 0 34 -14.5t14 -34.5t-14 -34.5t-34 -14.5t-34.5 14.5t-14.5 34.5t14.5 34.5t34.5 14.5zM425 202q0 11 -7.5 18.5t-18.5 7.5v0q-11 0 -19 -7.5t-8 -18.5t8 -18.5t19 -7.5v0q11 0 18.5 7.5t7.5 18.5
v0zM373 202q0 -11 7.5 -18.5t18 -7.5t18 7.5t7.5 18.5t-7.5 18.5t-18 7.5t-18 -7.5t-7.5 -18.5zM425 202v0q0 -11 -7.5 -18.5t-18.5 -7.5t-19 7.5t-8 18.5v0q0 11 8 18.5t19 7.5v0q11 0 18.5 -7.5t7.5 -18.5zM776 645h-218l61 180h105q9 0 15.5 6.5t6.5 15.5t-6.5 15.5
t-15.5 6.5h-121q-11 0 -17 -9l-1 -1l-2 -4q-1 0 -1 -1l-71 -209v0h-269h-2q-9 -1 -15 -8t-5 -16l8 -91q1 -9 7 -14.5t15 -5.5v0h25l3 -66l24 -524q1 -9 7.5 -15t15.5 -6h366q9 0 15.5 6t6.5 15l21 460l6 130h28q9 0 15.5 5.5t6.5 14.5l9 91v2q0 9 -6.5 15.5t-16.5 6.5z
M669 -57h-323l-21 458l1 -1q8 -13 13.5 -20t18 -15t28 -8t28 8t18 15t13.5 20q14 21 22 21t22 -21q8 -13 13.5 -20t18 -15t27.5 -8t28 8t18.5 15t13.5 20q14 21 22 21t21 -21q20 -30 38 -38zM748 554h-29q-9 0 -15.5 -6t-6.5 -15l-6 -113q0 1 -0.5 2t-1.5 2q-8 12 -13.5 19
t-18 15t-27.5 8t-28 -8t-18.5 -15t-13.5 -19q-14 -22 -22 -22t-22 22q-8 12 -13.5 19t-18 15t-27.5 8t-28 -8t-18.5 -15t-13.5 -19q-13 -22 -21.5 -22t-21.5 22q-13 19 -22 27.5t-20 11.5l-3 70q-1 9 -7.5 15t-15.5 6h-25l-4 47h485z" />
    <glyph glyph-name="shuiguo" unicode="&#xe69a;" 
d="M766 745l48 49q79 -76 98 -189.5t-24 -235t-139.5 -220t-216.5 -144t-234 -29.5t-192 93zM749 609q2 2 2 5t-2 5t-5 2t-5 -2t-2 -5t2 -5q5 -5 10 0zM703 371.5q2 2.5 2 5.5t-2 5t-5 2t-5 -2.5t-2 -5.5t2 -5t5 -2t5 2.5zM666.5 504q4.5 4 4.5 10t-4.5 10t-10.5 4t-10 -4
t-4 -10t4 -10t10 -4t10.5 4zM452 264q2 2 2 5t-2 5t-5 2t-5 -2v0q-2 -2 -2 -5t2 -5q5 -5 10 0zM435 150q3 3 3 7.5t-3 7.5t-7.5 3t-7.5 -3v0q-4 -3 -4 -7.5t3.5 -7.5t8 -3t7.5 3v0zM316 193q3 3 3 7.5t-3 7.5v0q-3 3 -7.5 3t-7.5 -3t-3 -7.5t3 -7.5t7.5 -3t7.5 3v0zM356 -50
q-160 0 -266 103q-6 7 -6 16t6.5 15.5t15.5 6.5t16 -6q92 -90 235 -90q97 0 196 44t180 126q91 94 132.5 209.5t24.5 223.5t-91 180q-7 7 -7 16t6.5 15.5t16 6.5t15.5 -6q62 -60 89.5 -143.5t17.5 -180.5q-10 -95 -54.5 -185.5t-118 -166t-163.5 -122t-185 -58.5
q-30 -4 -60 -4zM106 47v0q-9 0 -15.5 6.5t-6.5 15.5t6 16l708 725q7 6 16 6t16 -6.5t7 -15.5t-7 -16l-708 -725q-7 -6 -16 -6v0v0zM345 35q-118 0 -204 65q-9 7 -9 18q0 9 6.5 15.5t15.5 6.5q8 0 14 -4v0q101 -77 244.5 -50.5t256.5 142t136 259.5t-56 244q-5 6 -5 14
q0 9 6.5 15.5t15.5 6.5q11 0 17 -8h1q43 -55 60 -126t5 -149q-24 -161 -148 -288t-284 -155q-34 -6 -72 -6v0zM585 352q-9 0 -15.5 6.5t-6.5 15.5t6 16l5 5l5 5q6 6 15.5 6t16 -6.5t6.5 -15.5t-6 -15l-5 -6l-5 -5q-7 -6 -16 -6v0zM569 211v0q-10 0 -16.5 6.5t-6.5 16t7 15.5
q1 2 2.5 3.5l3.5 3.5v0q7 7 16 7t16 -7t7 -16t-7 -15q0 -1 -3 -4l-4 -3q-6 -7 -15 -7v0zM451 339v0q-9 0 -15.5 7t-6.5 16t6 15l4 5l4 4q7 7 16 7q10 0 16.5 -6.5t6.5 -16.5q0 -9 -7 -15q-2 -2 -4 -5l-4 -4q-7 -7 -16 -7v0zM424 130v0q-9 0 -16 6.5t-7 16t7 15.5l4 5l4 4
q7 7 16 7t15.5 -7t6.5 -16t-6 -15q-2 -2 -4 -5l-4 -4q-7 -7 -16 -7v0zM304 171v0q-9 0 -15.5 6.5t-6.5 16t6 15.5l4 5q4 4 5 4q6 7 16 7q9 0 15.5 -7t6.5 -16t-6 -15l-5 -5l-4 -4q-6 -7 -16 -7v0zM442 242v0q-10 0 -16.5 6.5t-6.5 16t7 15.5l4 4q4 4 4 5q7 6 16 6t15.5 -6.5
t6.5 -15.5t-6 -16l-4 -4l-4 -4q-7 -7 -16 -7v0zM696 352v0q-9 0 -15.5 6.5t-6.5 16t6 15.5l4 4q4 4 4 5q7 6 16 6q10 0 16.5 -6.5t6.5 -15.5t-7 -15q-2 -3 -4 -5l-4 -4q-7 -7 -16 -7v0zM652 489v0q-10 0 -16.5 6.5t-6.5 15.5t7 16l4 4l4 4q6 7 16 7q9 0 15.5 -6.5t6.5 -15.5
t-6 -16l-4 -4l-4 -5q-7 -6 -16 -6v0zM737 586v0q-9 0 -15.5 6.5t-6.5 16t6 15.5l4 4l4 4q7 7 16 7q10 0 16.5 -6.5t6.5 -15.5t-7 -16l-4 -4l-4 -4q-7 -7 -16 -7v0z" />
    <glyph glyph-name="zhongcan" unicode="&#xe69b;" 
d="M860 366v-9q0 -49 -14 -96l-3 1l-145 64l-145 -64l-144 64l-145 -64l-144 64l-9 -1q-2 16 -2 32v73l150 -64l151 64l150 -64l150 64zM860 509v-143l-150 64l-150 -64l-150 64l-151 -64l-150 64v79h750h1zM843 262l3 -1q-20 -69 -66.5 -124t-109.5 -86q-72 -36 -152 -36
h-67q-80 0 -151 36q-79 39 -130 112t-59 162l9 1l144 -64l145 64l144 -64l145 64zM670 51l3 -7l-35 -110h-307l-34 110l3 7q71 -36 151 -36h67q80 0 152 36zM541 516v-7h-363v7q0 78 53 133t128.5 55t128.5 -55t53 -133zM518 -7h-67q-85 0 -161 37q-85 42 -139 121t-63 172
q-1 17 -1 34v152q0 9 6.5 15.5t16 6.5t16 -6.5t6.5 -15.5v-152q0 -15 1 -30q8 -82 55.5 -151t121.5 -105q66 -33 141 -33h67q75 0 142 33q60 29 103 80.5t62 115.5q13 44 13 90v0v152q0 9 6.5 15.5t15.5 6.5t15.5 -6.5t6.5 -15.5v-152q0 -52 -14 -102q-22 -73 -71 -132
t-118 -93q-75 -37 -161 -37zM859 486h-751q-9 0 -15.5 6.5t-6.5 16t6.5 16t15.5 6.5h751q9 0 16 -6.5t7 -16t-7 -16t-16 -6.5zM638 -88h-307q-6 0 -12.5 4.5t-8.5 11.5l-35 109q-1 4 -1 7q0 7 4.5 13.5t11.5 8.5q9 2 17 -2t11 -13l30 -94h274l29 94q2 6 8.5 11t13.5 5
q3 0 6 -1q7 -2 11.5 -8.5t4.5 -13.5q0 -3 -1 -7l-35 -109q-2 -7 -8 -11.5t-13 -4.5v0zM628 486q-10 0 -16.5 6.5t-6.5 15.5q0 5 2 9l139 326q6 14 21 14q9 0 15.5 -6.5t6.5 -16.5q0 -4 -2 -9l-139 -325q-6 -14 -20 -14v0zM709 486q-10 0 -16.5 6.5t-6.5 16.5q0 6 4 12
l199 307q7 10 19 10q9 0 15.5 -6.5t6.5 -15.5q0 -7 -3 -13l-200 -307q-6 -10 -18 -10v0zM860 344q-4 0 -9 2l-141 60l-141 -60q-5 -2 -9.5 -2t-8.5 2l-141 60l-142 -60q-4 -2 -8.5 -2t-8.5 2l-151 64q-13 6 -13 20q0 10 6.5 16.5t15.5 6.5q5 0 9 -2l141 -60l142 60
q4 2 8.5 2t8.5 -2l142 -60l141 60q4 2 8.5 2t9.5 -2l150 -64q13 -6 13 -21q0 -4 -1 -8q-6 -14 -21 -14zM843 240q-5 0 -9 2l-136 60l-135 -60q-5 -2 -9.5 -2t-9.5 2l-135 60l-136 -60q-9 -4 -18 0l-144 64q-9 3 -12.5 12t0.5 17.5t12.5 11.5t17.5 0l135 -60l136 60q4 1 9 1
t9 -1l135 -60l136 60q4 1 9 1t9 -1l145 -64q13 -6 13 -21q0 -5 -2 -9q-6 -13 -20 -13v0zM541 494v0q-9 0 -15.5 6.5t-6.5 15.5q0 69 -47 117.5t-112.5 48.5t-112.5 -48.5t-47 -117.5q0 -9 -6.5 -15.5t-15.5 -6.5t-15.5 6.5t-6.5 15.5q0 87 59.5 148.5t144 61.5t144 -61.5
t59.5 -148.5q0 -9 -6.5 -15.5t-15.5 -6.5z" />
    <glyph glyph-name="bingbang" unicode="&#xe69c;" 
d="M440 677q70 70 169 70t169 -70l28 -28q70 -70 70 -169t-70 -169l-5 -5l-106 16l-16 106l-106 16l-16 106l-106 16l-16 106zM801 306l-253 -253l-146 147l-80 79l-140 141l253 252l16 -106l106 -16l16 -106l106 -16l16 -106zM402 200l-4 -4l-156 -156q-16 -16 -39.5 -16
t-40 16.5t-16.5 39.5t17 40l155 156l4 3zM548 31v0q-9 0 -15 7l-367 366q-6 6 -6 15.5t6.5 16t16 6.5t15.5 -7l366 -366q7 -6 7 -15.5t-6.5 -16t-16.5 -6.5zM202.5 2q-32.5 0 -55.5 23t-23 55.5t23 55.5l156 155q6 7 15.5 7t16 -6.5t6.5 -16t-7 -15.5l-155 -156
q-10 -10 -10 -24v0q0 -14 10 -24t24 -10t24 10l155 156q7 6 16 6t15.5 -6.5t6.5 -15.5t-6 -16l-156 -155q-23 -23 -55.5 -23zM548 31q-9 0 -15.5 6.5t-6.5 16t7 15.5l257 258q64 63 64 153t-64 153l-28 28q-63 63 -153 63t-153 -63l-258 -257q-6 -7 -15.5 -7t-16 6.5
t-6.5 16t6 15.5l258 258q76 76 184.5 76t185.5 -76l28 -28q76 -77 76 -185t-76 -185l-258 -257q-6 -7 -15 -7h-1zM801 284h-3l-107 16q-6 1 -11.5 6.5t-6.5 12.5l-14 89l-90 14q-6 1 -11.5 6.5t-6.5 12.5l-14 89l-90 14q-6 1 -11.5 6.5t-6.5 12.5l-16 106v3q0 9 6.5 16
t15.5 7q8 0 14.5 -6t7.5 -14l13 -89l90 -14q7 -1 12.5 -6.5t6.5 -12.5l13 -89l90 -14q7 -1 12.5 -6.5t6.5 -12.5l13 -89l90 -14q8 -1 13.5 -7.5t5.5 -14.5q0 -9 -6.5 -15.5t-15.5 -6.5z" />
    <glyph glyph-name="bingqilin" unicode="&#xe69d;" 
d="M861 559l6 -6q22 -22 22 -53.5t-22 -53.5t-53.5 -22t-53.5 22l-190 191q-23 22 -23 53.5t22.5 53.5t53.5 22t53 -22l6 -6zM860.5 737q36.5 -37 37 -89t-36.5 -89l-179 179q37 37 89.5 36.5t89 -37.5zM779 420q24 -24 24 -57t-23.5 -56.5t-57 -23.5t-56.5 23l-237 237
q-23 23 -23 56.5t23.5 57t56.5 23.5t57 -24zM577 389l74 -73l-535 -323l323 535zM117 -29h-1q-9 0 -15.5 6.5t-6.5 15.5q0 7 3 12l323 534q5 9 16 11h3q9 0 16 -7l212 -212q6 -6 6 -15q0 -13 -11 -20l-534 -322q-5 -3 -11 -3v0zM443 492l-261 -433l433 261zM722.5 260
q-42.5 0 -72.5 30l-236 237q-30 30 -30 72.5t30 72.5t72.5 30t72.5 -30l236 -237q30 -30 30 -72.5t-30 -72.5t-72.5 -30zM486 657v0q-24 0 -41 -17t-17 -40.5t17 -40.5l237 -237q17 -17 41 -17v0q24 0 40.5 17t16.5 41t-16 41l-237 236q-17 17 -41 17v0zM813.5 402
q-40.5 0 -69.5 29l-190 190q-29 29 -29 69.5t28.5 69t69.5 28.5t69 -29l191 -190q28 -29 28 -69.5t-28.5 -69t-69 -28.5zM623 743q-22 0 -37.5 -15.5t-15.5 -37.5v0q0 -22 15 -37l191 -191q15 -15 37.5 -15t38 15.5t15.5 37.5t-16 37l-190 191q-16 15 -38 15v0zM860 536v0
q-9 0 -15.5 6.5t-6.5 15.5t7 16v0v1q30 30 30 73t-30.5 73.5t-73.5 30.5t-73 -30h-1q-6 -7 -15.5 -7t-16 6.5t-6.5 16t6 15.5q1 1 2 1q43 43 104.5 42.5t104.5 -43.5t43.5 -104.5t-41.5 -105.5q-1 0 -2 -1q-6 -6 -16 -6v0zM439 283v0q-9 0 -15.5 6.5t-6.5 16.5q0 12 10 19
l139 83q5 3 11 3q10 0 16.5 -6.5t6.5 -15.5v0q0 -13 -12 -20l-138 -83q-5 -3 -11 -3v0z" />
    <glyph glyph-name="cha" unicode="&#xe69e;" 
d="M995 440l-189 -350h-4q-4 90 -19 175l94 175h118zM248 355q11 45 26 85h463q29 -80 46 -175q15 -85 19 -175q1 -33 1 -68h-595q0 53 3 104q9 122 37 229zM737 525h-463q35 69 84 113.5t106 57.5q-1 5 -1 11q0 19 11 33t27 14t27.5 -14t11.5 -33q0 -5 -1 -10
q59 -10 110 -55.5t88 -116.5zM248 355q-28 -107 -37 -229v0q-27 -18 -59 -18q-51 0 -87 44.5t-36 107t36 106.5t87 44q58 0 96 -55zM199 259q0 24 -14 40.5t-33 16.5t-33 -16.5t-14 -40.5t14 -40.5t33 -16.5t33 16.5t14 40.5zM803 0v0q-9 0 -15.5 6.5t-6.5 15.5q0 34 -1 67
q-4 89 -19 172q-17 93 -45 172q-1 3 -1 7q0 9 6.5 15.5t15.5 6.5q16 0 21 -14q30 -82 47 -179q15 -86 19 -178q2 -34 2 -68v-1v0q0 -9 -6.5 -15.5t-16.5 -6.5v0v0zM208 0q-10 0 -16.5 6.5t-6.5 15.5q0 54 4 106q9 124 37 232q12 46 27 88q5 14 21 14q9 0 15.5 -6.5
t6.5 -15.5q0 -4 -1 -7q-14 -40 -26 -84q-27 -105 -35 -224q-4 -51 -4 -102v-1q0 -9 -6.5 -15.5t-15.5 -6.5v0zM803 0h-595q-10 0 -16.5 6.5t-6.5 16t6.5 16t16.5 6.5h595q10 0 16.5 -6.5t6.5 -16t-6.5 -16t-16.5 -6.5v0zM737 418h-463q-9 0 -15.5 6.5t-6.5 15.5t6.5 16
t15.5 7h463q9 0 15.5 -7t6.5 -16t-6.5 -15.5t-15.5 -6.5zM737 502h-463q-9 0 -15.5 6.5t-6.5 16t6.5 16t15.5 6.5h463q9 0 15.5 -6.5t6.5 -16t-6.5 -16t-15.5 -6.5zM152 86q-60 0 -103 50.5t-43 122.5t43 123t103 51q70 0 114 -65q4 -6 4 -13q0 -9 -6.5 -15.5t-16.5 -6.5
q-11 0 -18 9q-31 46 -77 46q-42 0 -71.5 -38t-29.5 -91t29.5 -91t71.5 -38q25 0 47 15q5 4 12 4q9 0 15.5 -6.5t6.5 -16.5q0 -12 -9 -18q-34 -22 -72 -22zM152.5 180q-28.5 0 -49 23t-20.5 56t20.5 56.5t49 23.5t48.5 -23.5t20 -56.5t-20 -56t-48.5 -23zM152 294
q-10 0 -17 -10.5t-7 -24.5t7 -24.5t17 -10.5t17 10.5t7 24.5t-7 24.5t-17 10.5zM806 67q-10 0 -16.5 7t-6.5 16q0 5 3 10l172 318h-68l-87 -164q-7 -12 -20 -12q-6 0 -11 3q-11 6 -11 20q0 5 2 10l94 176q6 12 20 12v0h118v0q10 0 16.5 -7t6.5 -16q0 -5 -3 -10l-190 -351
q-6 -12 -19 -12v0zM274 502v0q-9 0 -15.5 6.5t-6.5 16.5q0 5 2 10q35 69 83 114.5t104 63.5q2 26 19.5 44.5t40.5 18.5t40.5 -17.5t20.5 -43.5q58 -16 108 -62t87 -118q2 -5 2 -10q0 -7 -3 -12q-6 -11 -19 -11v0h-463zM501 731q-6 0 -11 -7t-5 -17q0 -4 1 -7v-4
q0 -8 -5 -14.5t-12 -7.5q-91 -20 -157 -127h387q-69 111 -164 128q-8 2 -13.5 8t-5.5 14q0 2 1 4v6q0 10 -5 17t-11 7zM312 308q-4 0 -7 1q-6 2 -11 8t-5 13q0 4 1 7q7 23 15 46q5 15 21 15q9 0 15.5 -6.5t6.5 -16.5q0 -4 -1 -7q-8 -22 -14 -44q-2 -6 -8 -11t-13 -5zM280 65
v0q-9 0 -15.5 6.5t-6.5 15.5q0 92 15 176q2 8 8 13t14 5q9 0 16 -6.5t7 -15.5q0 -2 -1 -4q-14 -80 -14 -168q0 -9 -7 -15.5t-16 -6.5zM394 567q-10 0 -16.5 6.5t-6.5 16t7 15.5q26 26 58 38q4 1 8 1q15 0 21 -15q1 -4 1 -8q0 -15 -15 -21q-22 -8 -42 -27q-6 -6 -15 -6v0z
" />
    <glyph glyph-name="chushi" unicode="&#xe69f;" 
d="M837 494q-28 -27 -66 -34q-10 -1 -20 -1q-24 0 -46 9t-39 26q-7 7 -16 7t-16 -6.5t-7 -16t7 -16.5q47 -47 114 -48l-41 -370h-65v193q0 10 -6.5 16.5t-15.5 6.5t-15.5 -6.5t-6.5 -16.5v-193h-63v331q0 10 -6.5 16.5t-15.5 6.5t-15.5 -6.5t-6.5 -16.5v-331h-63v193
q0 10 -6.5 16.5t-15.5 6.5t-16 -6.5t-7 -16.5v-193h-64l-42 371q65 5 108 52l0.5 1.5t1 4.5t0.5 5q0 9 -6.5 16t-15.5 7t-16 -7q-35 -35 -86 -35h-9v0q-47 4 -79 39q-33 32 -32.5 82t35.5 85q35 36 85.5 36t85.5 -36q7 -6 16 -6t16 6q3 4 5 9t2 10q0 50 35.5 85.5t85.5 35.5
q49 0 84 -33.5t37 -81.5q-1 -4 -1 -8q0 -9 6.5 -15.5t15.5 -6.5t16 7l1 1q36 34 85.5 33.5t84.5 -34.5q36 -36 36 -86t-35 -85l-1 -1zM702 -1l-4 -34h-370l-4 34h296h82zM870 698q-40 40 -96.5 47t-103.5 -20q-14 54 -58.5 89.5t-102.5 35.5q-68 0 -117 -49q-40 -41 -47 -97
q-46 41 -101.5 38t-97.5 -45q-48 -49 -48 -117.5t48 -116.5v-1q36 -36 86 -45l45 -397v-0.5v-0.5l9 -79q1 -8 7.5 -14t14.5 -6h410q8 0 14.5 6t7.5 14l9 79l45 401q11 2 21 6q29 13 53 36v0l2 2q48 48 48 117t-48 117zM698 -35h-370l-4 34h378zM839 496l-1 -1l-1 -1
q-28 -27 -66 -34q-10 -1 -20 -1q-24 0 -46 9t-39 26q-7 7 -16 7t-16 -6.5t-7 -16t7 -16.5q47 -47 114 -48l-41 -370h-65v193q0 10 -6.5 16.5t-15.5 6.5t-15.5 -6.5t-6.5 -16.5v-193h-63v331q0 10 -6.5 16.5t-15.5 6.5t-15.5 -6.5t-6.5 -16.5v-331h-63v193q0 10 -6.5 16.5
t-15.5 6.5t-16 -6.5t-7 -16.5v-193h-64l-42 371q65 5 108 52l0.5 1.5t1 4.5t0.5 5q0 9 -6.5 16t-15.5 7t-16 -7q-35 -35 -86 -35h-9v0q-47 4 -79 39q-33 32 -32.5 82t35.5 85q35 36 85.5 36t85.5 -36q7 -6 16 -6t16 6q3 4 5 9t2 10q0 50 35.5 85.5t85.5 35.5q49 0 84 -33.5
t37 -81.5q-1 -4 -1 -8q0 -9 6.5 -15.5t15.5 -6.5t16 7l1 1q36 34 85.5 33.5t84.5 -34.5q36 -36 36 -86t-35 -85z" />
    <glyph glyph-name="bangong" unicode="&#xe6a0;" 
d="M59 724h896v-448h-896v448zM963 276v-51q0 -28 -19.5 -47.5t-47.5 -19.5h-770q-28 0 -47.5 19.5t-19.5 47.5v51h904zM633 91v-6q0 -28 -20 -47.5t-48 -19.5h-108q-28 0 -47.5 19.5t-19.5 47.5v6q0 28 19.5 47.5t47.5 19.5h108q28 0 48 -19.5t20 -47.5zM896 136h-331
q-9 0 -15.5 6.5t-6.5 15.5t6.5 15.5t15.5 6.5h331q19 0 32 13.5t13 31.5v454q0 19 -13 32t-32 13h-770q-18 0 -31.5 -13t-13.5 -32v-454q0 -18 13.5 -31.5t31.5 -13.5h331q9 0 15.5 -6.5t6.5 -15.5t-6.5 -15.5t-15.5 -6.5h-331q-37 0 -63 26t-26 63v454q0 37 26 63.5
t63 26.5h770q37 0 63.5 -26.5t26.5 -63.5v-454q0 -37 -26.5 -63t-63.5 -26zM565 -4q-9 0 -15.5 6.5t-6.5 15.5t6.5 15.5t15.5 6.5q19 0 32 13.5t13 31.5v6q0 18 -13 31.5t-32 13.5h-108q-19 0 -32 -13.5t-13 -31.5v-6q0 -18 13 -31.5t32 -13.5q9 0 15.5 -6.5t6.5 -15.5
t-6.5 -15.5t-15.5 -6.5q-37 0 -63.5 26t-26.5 63v6q0 37 26.5 63t63.5 26h108q37 0 63.5 -26t26.5 -63v-6q0 -37 -26.5 -63t-63.5 -26zM747 -4h-472q-9 0 -15.5 6.5t-6.5 15.5t6.5 15.5t15.5 6.5h472q9 0 15.5 -6.5t6.5 -15.5t-6.5 -15.5t-15.5 -6.5v0zM963 254h-904
q-9 0 -15.5 6.5t-6.5 15.5t6.5 15.5t15.5 6.5h904q10 0 16.5 -6.5t6.5 -15.5t-6.5 -15.5t-16.5 -6.5z" />
    <glyph glyph-name="danche" unicode="&#xe6a1;" 
d="M784 379q19 5 40 5q69 0 117 -48t48 -116.5t-48 -117t-116.5 -48.5t-117 48.5t-48.5 116.5q0 57 35 101.5t90 58.5zM366 219h-165l60 154q47 -18 76 -60t29 -94zM201 219h165q0 -68 -48.5 -116.5t-116.5 -48.5t-116.5 48.5t-48.5 117t48.5 116.5t116.5 48q31 0 60 -11z
M200.5 32q-77.5 0 -132 55t-54.5 132.5t54.5 132t132.5 54.5q36 0 68 -12q54 -22 86.5 -69.5t32.5 -105.5q0 -77 -55 -132t-132.5 -55zM201 362q-59 0 -101 -42t-42 -101t42 -100.5t101 -41.5t100.5 41.5t41.5 100.5q0 45 -24.5 81t-65.5 52q-25 10 -52 10zM824.5 32
q-77.5 0 -132.5 55t-55 132q0 65 39.5 115.5t101.5 66.5q23 5 46 5v0q78 0 133 -54.5t55 -132t-55 -132.5t-132.5 -55zM824 362q-18 0 -35 -5q-47 -12 -77 -50.5t-30 -87.5q0 -59 41.5 -100.5t100.5 -41.5t101 41.5t42 100.5t-42 101t-101 42zM534 197h-333v0
q-9 0 -15.5 6.5t-6.5 15.5q0 4 1 8l121 310q6 14 21 14h390v0q9 0 15.5 -6.5t6.5 -16.5q0 -6 -3 -11l-178 -309q-6 -11 -19 -11zM234 242h287l152 264h-336zM534 197v0q-12 0 -18 9l-289 398q-4 5 -4 13q0 9 6.5 15.5t15.5 6.5q11 0 18 -9l289 -398q4 -6 4 -13q0 -11 -9 -18
q-6 -4 -13 -4v0zM824 197q-7 0 -13.5 5t-7.5 12l-125 488q-1 3 -1 5q0 8 5 14t12 8q9 2 17 -2.5t10 -13.5l125 -488q1 -3 1 -6q0 -9 -6.5 -15.5t-16.5 -6.5v0zM327 594h-164q-9 0 -15.5 6.5t-6.5 16t6.5 16t15.5 6.5h164q9 0 15.5 -6.5t6.5 -16t-6.5 -16t-15.5 -6.5z
M777 685h-163q-10 0 -16.5 6.5t-6.5 16t6.5 16t16.5 6.5h163q9 0 15.5 -6.5t6.5 -16t-6.5 -16t-15.5 -6.5z" />
    <glyph glyph-name="dalei" unicode="&#xe6a2;" 
d="M708 544h105q68 0 115.5 -48t47.5 -115.5t-47.5 -115t-115.5 -47.5h-201v0l-99 57l179 193l-343 -193l99 -57h-230q-67 0 -115 47.5t-48 115t48 115.5t115 48h5q0 100 71 171t171.5 71t171.5 -71t71 -171zM692 468l-179 -193l99 -57l80 -47l-343 -191l179 191l-80 47v0
l-99 57zM708 521v0q-9 0 -15.5 6.5t-6.5 16.5q0 91 -64.5 155.5t-155.5 64.5t-155.5 -64.5t-64.5 -155.5q0 -10 -7 -16.5t-16 -6.5t-15.5 6.5t-6.5 16.5q0 109 77.5 187t187 78t187.5 -78t78 -187q0 -10 -6.5 -16.5t-16.5 -6.5zM448 195h-230q-76 0 -130.5 54.5t-54.5 131.5
t54.5 131t130.5 54q10 0 16.5 -6.5t6.5 -16t-6.5 -16t-16.5 -6.5q-58 0 -99 -41t-41 -99t41 -99.5t99 -41.5h230q9 0 15.5 -6.5t6.5 -15.5t-6.5 -16t-15.5 -7zM813 195h-201q-10 0 -16.5 7t-6.5 16t6.5 15.5t16.5 6.5h201q58 0 99.5 41.5t41.5 99.5t-41.5 99t-99.5 41
q-9 0 -15.5 6.5t-6.5 16t6.5 16t15.5 6.5q77 0 131 -54.5t54 -131t-54 -131t-131 -54.5zM813 521h-179q-9 0 -15.5 6.5t-6.5 16t6.5 16t15.5 6.5h179q9 0 15.5 -6.5t6.5 -16t-6.5 -16t-15.5 -6.5zM349 -42v0q-9 0 -15.5 6.5t-6.5 15.5t6 16l160 170l-56 32h-1l-98 58
q-11 6 -11 19t11 20l343 193q5 2 11 2q10 0 16.5 -6.5t6.5 -15.5t-6 -15l-160 -172l155 -91q11 -6 11 -19t-12 -20l-343 -190q-5 -3 -11 -3zM458 238q0 -1 1 -1l80 -47q12 -6 12 -19q0 -9 -6 -16l-81 -86l183 102l-145 85q-11 6 -11 19q0 9 6 16l82 88l-185 -104z" />
    <glyph glyph-name="dayi" unicode="&#xe6a3;" 
d="M513 459l171 159l-84 33l-4 4l125 124l4 -4q8 -7 26.5 -20t26 -19t21.5 -18.5t20 -21.5t15.5 -24t13.5 -31.5t9 -38.5t7 -49t2 -60v-500h-136v-86h-292v476l-1 5zM648 864l-18 -31l-117 -203l-116 202l-19 32h270zM513 461v169l117 203l8 -4l100 -33l-17 -17l-125 -124
l4 -4l84 -33l-171 -159v2zM297 -7h-136v500q0 33 1.5 60t6.5 49t9 38t13.5 31.5t15.5 24.5t20.5 21.5t21.5 18.5t25.5 19t26.5 19l6 6l127 -125l-1 -4l-88 -33l168 -157v-2l-76 -71l1 -5v-476h-141v86zM513 630v-169l-168 157l88 33l1 4l-127 125l-16 16l101 33l5 3z
M866 -29v0q-10 0 -16.5 6.5t-6.5 15.5v500q0 49 -5 85.5t-11.5 58.5t-23 42t-28.5 30t-38 29q-17 12 -26 19q-9 6 -9 18q0 9 6.5 15.5t16.5 6.5q7 0 13 -5q8 -6 25 -18q28 -20 41.5 -31t33 -34.5t28 -49.5t15.5 -68t7 -98v-500q0 -9 -6.5 -15.5t-15.5 -6.5zM160.5 -29
q-9.5 0 -16 6.5t-6.5 15.5v500q0 56 7 98t15.5 68t28 49.5t33 34.5t41.5 31q16 12 25 18q6 5 13 5q10 0 16.5 -6.5t6.5 -16.5q0 -11 -9 -17.5t-26 -18.5q-26 -19 -38 -29t-28 -30t-23 -42t-12 -58.5t-5 -85.5v-500v0q0 -9 -6.5 -15.5t-16 -6.5zM730 -116h-433v0
q-10 0 -16.5 6.5t-6.5 16.5v603q0 9 6.5 16t16 7t16 -7t6.5 -16v-581h388v581q0 9 6.5 16t16 7t16 -7t6.5 -16v-603q0 -10 -6.5 -16.5t-15.5 -6.5zM513 608q-13 0 -19 11l-135 234q-3 5 -3 11q0 9 6.5 15.5t15.5 6.5h270q9 0 16 -6.5t7 -15.5q0 -6 -3 -11l-135 -234
q-7 -11 -20 -11zM417 842l96 -167l96 167h-192zM513 439v0q-9 0 -15 6l-168 156q-7 7 -7 17q0 15 14 21l88 33q4 1 8 1q9 0 15.5 -6.5t6.5 -15.5q0 -15 -14 -21l-54 -20l141 -133q8 -6 8 -16q0 -9 -7 -15.5t-16 -6.5v0zM434 633h-1q-9 0 -15 6l-143 141q-6 7 -6 16
q0 7 4.5 13t10.5 8l101 34q3 1 7 1q9 0 15.5 -6.5t6.5 -16.5q0 -6 -4.5 -12.5t-10.5 -8.5l-66 -22l116 -115q7 -7 7 -16t-6.5 -15.5t-15.5 -6.5v0zM437 366q-9 0 -15.5 6.5t-6.5 15.5q0 10 7 17l221 205l-52 20q-14 6 -14 21q0 4 2 8q5 14 21 14q4 0 8 -1l84 -33
q15 -6 15 -21q0 -10 -8 -17l-246 -229q-7 -6 -16 -6v0zM596 633v0q-9 0 -16 6.5t-7 15.5t7 16l117 115l-66 22q-7 2 -11.5 8.5t-4.5 12.5q0 4 1 7q2 7 8.5 11.5t13.5 4.5q3 0 7 -1l100 -34q7 -2 11.5 -8t4.5 -13q0 -9 -7 -16l-142 -141q-7 -6 -16 -6v0zM438 -116v0
q-9 0 -15.5 6.5t-6.5 16.5v476q0 9 6.5 15.5t16 6.5t16 -6.5t6.5 -15.5v-476q0 -10 -6.5 -16.5t-16.5 -6.5zM513 435v0q-9 0 -15.5 6.5t-6.5 16.5v172q0 10 6.5 16.5t15.5 6.5t15.5 -6.5t6.5 -16.5v-172q0 -10 -6.5 -16.5t-15.5 -6.5zM291 -29h-130q-10 0 -16.5 6.5t-6.5 16
t6.5 16t16.5 6.5h130q9 0 16 -6.5t7 -16t-7 -16t-16 -6.5zM866 -29h-128q-9 0 -15.5 6.5t-6.5 16t6.5 16t15.5 6.5h128q9 0 15.5 -6.5t6.5 -16t-6.5 -16t-15.5 -6.5zM513 288v0q-9 0 -15.5 7t-6.5 16v25q0 10 6.5 16.5t15.5 6.5t15.5 -6.5t6.5 -16.5v-25q0 -9 -6.5 -16
t-15.5 -7zM513 161v0q-9 0 -15.5 6.5t-6.5 15.5v26q0 9 6.5 15.5t15.5 6.5t15.5 -6.5t6.5 -15.5v-26q0 -9 -6.5 -15.5t-15.5 -6.5zM513 33v0q-9 0 -15.5 6.5t-6.5 15.5v26q0 9 6.5 15.5t15.5 6.5t15.5 -6.5t6.5 -15.5v-26q0 -9 -6.5 -15.5t-15.5 -6.5z" />
    <glyph glyph-name="buhang" unicode="&#xe6a4;" 
d="M770.5 830q51.5 0 88 -36.5t36.5 -88t-36.5 -88t-88 -36.5t-88 36.5t-36.5 88t36.5 88t88 36.5zM771 559q-61 0 -104 43t-43 103.5t43 104t104 43.5t104 -43.5t43 -104t-43 -103.5t-104 -43zM771 808q-42 0 -72 -30t-30 -72.5t30 -72.5t72 -30t72 30t30 72.5t-30 72.5
t-72 30zM377 471v0q-9 0 -15.5 6.5t-6.5 15.5q0 10 7 16l37 36q60 56 142 53t138 -62q6 -7 6 -16t-6.5 -15.5t-15.5 -6.5q-10 0 -17 7q-43 46 -106.5 48t-109.5 -41l-38 -35q-6 -6 -15 -6v0zM795 438h-7q-81 3 -137 62q-7 7 -7 16t6.5 15.5t16.5 6.5t16 -7q44 -46 107 -48
t110 41l37 35q7 6 15 6q10 0 17 -7q6 -6 6 -15q0 -10 -7 -16l-38 -36q-57 -53 -135 -53zM340 37q-38 0 -73 14l-48 19q-14 6 -14 21q0 5 1 9q6 14 21 14q5 0 9 -2l47 -19q59 -24 117.5 1t82.5 83v1l162 343q6 13 20 13q9 0 15.5 -6.5t6.5 -15.5q0 -5 -2 -10l-161 -342
q-23 -57 -73.5 -90t-110.5 -33zM740 -92q-9 0 -15.5 7t-6.5 16q0 6 3 11l26 45q31 54 15 115t-70 93l-106 49q-13 6 -13 21q0 9 6.5 15.5t15.5 6.5q5 0 9 -2l107 -49q1 -1 2 -1q71 -41 92 -120.5t-20 -150.5l-25 -44q-7 -12 -20 -12v0zM292 210h-218q-9 0 -15.5 6.5t-6.5 16
t6.5 16t15.5 6.5h218q9 0 15.5 -6.5t6.5 -16t-6.5 -16t-15.5 -6.5zM446 633h-311q-9 0 -15.5 6.5t-6.5 16t6.5 16t15.5 6.5h311q9 0 16 -6.5t7 -16t-7 -16t-16 -6.5zM542 705h-208q-9 0 -15.5 6.5t-6.5 16t6.5 16t15.5 6.5h208q9 0 15.5 -6.5t6.5 -16t-6.5 -16t-15.5 -6.5z
M366 291h-199q-9 0 -15.5 6.5t-6.5 15.5t6.5 15.5t15.5 6.5h199q10 0 16.5 -6.5t6.5 -15.5t-6.5 -15.5t-16.5 -6.5z" />
    <glyph glyph-name="deshi" unicode="&#xe6a5;" 
d="M999 248h-2q-21 -8 -40.5 1.5t-27 30t2 40t29.5 27.5l2 1q15 -18 25.5 -47.5t10.5 -52.5zM815 169v-4q-2 -40 -31 -68t-69 -28t-69 28t-31 68v4q0 41 29.5 70t70.5 29t70.5 -29t29.5 -70zM643 548l84 -129h-234v129h150zM430 548v-129h-204l34 129h170zM409 169v-4
q-1 -40 -30 -68t-69.5 -28t-69.5 28t-30 68v4q0 41 29 70t70.5 29t70.5 -29t29 -70zM615 165h-206v4q0 41 -29 70t-70.5 29t-70.5 -29t-29 -70v-4h-183v126q0 52 33.5 88.5t84.5 36.5v0l59 195h475l148 -195v0q41 0 76.5 -18t59.5 -50l-2 -1q-20 -8 -29.5 -27.5t-2 -40
t27 -30t40.5 -1.5h2v-5v-78h-184v4q0 41 -29.5 70t-70.5 29t-70.5 -29t-29.5 -70v-4v0zM727 419l-84 129h-150v-129h234zM430 419v129h-170l-34 -129h204zM145 394v0q-9 0 -16 6.5t-7 15.5q0 4 1 7l59 194q2 7 8.5 11.5t13.5 4.5h475v0q12 0 18 -9l148 -194q4 -6 4 -14
q0 -9 -6.5 -15.5t-15.5 -6.5q-11 0 -18 9l-141 186h-448l-54 -179q-2 -7 -8 -11.5t-13 -4.5zM999 143v0q-9 0 -15.5 6.5t-6.5 15.5v78v4q-1 49 -31 88q-45 58 -119 58q-9 0 -15.5 6.5t-6.5 16t6.5 16t15.5 6.5q46 0 86 -20t68 -56q39 -50 41 -114v-5v-78v0q0 -9 -6.5 -15.5
t-16.5 -6.5v0zM999 143h-184q-9 0 -16 6.5t-7 16t7 16t16 6.5h184q10 0 16.5 -6.5t6.5 -16t-6.5 -16t-16.5 -6.5zM615 143h-206q-9 0 -15.5 6.5t-6.5 16t6.5 16t15.5 6.5h206q10 0 16.5 -6.5t6.5 -16t-6.5 -16t-16.5 -6.5zM210 143h-183q-10 0 -16.5 6.5t-6.5 16t6.5 16
t16.5 6.5h183q9 0 15.5 -6.5t6.5 -16t-6.5 -16t-15.5 -6.5zM309.5 47q-49.5 0 -85 34t-37.5 83v5q0 50 36 86t86.5 36t86.5 -36t36 -86q0 -2 -1 -4q-1 -50 -36.5 -84t-85 -34zM309 246q-32 0 -54.5 -22.5t-22.5 -54.5v-3q1 -31 23.5 -53t54 -22t54 22t23.5 53v3
q0 32 -23 54.5t-55 22.5zM715 47q-50 0 -85 34t-37 83v5q0 50 36 86t86.5 36t86 -36t35.5 -86v-4q-2 -50 -37 -84t-85 -34zM715 246q-32 0 -54.5 -22.5t-22.5 -54.5v-3q1 -31 23.5 -53t54 -22t53.5 22t23 53v3q0 32 -22.5 54.5t-54.5 22.5zM430 397h-204v0q-9 0 -16 6.5
t-7 15.5q0 3 1 6l34 128q2 7 8.5 12t13.5 5h170v0q9 0 15.5 -6.5t6.5 -15.5v-129q0 -9 -6.5 -15.5t-15.5 -6.5zM255 442h152v83h-130zM727 397h-234v0q-9 0 -15.5 6.5t-6.5 15.5v129q0 9 6.5 15.5t15.5 6.5h150q12 0 18 -10l84 -127q5 -6 5 -14q0 -9 -6.5 -15.5t-16.5 -6.5
v0zM515 442h171l-55 83h-116v-83zM26.5 144q-9.5 0 -16 7t-6.5 16v124q0 61 39 103q41 44 102 44q9 0 15.5 -6.5t6.5 -16t-6.5 -16t-15.5 -6.5q-41 0 -68.5 -29t-27.5 -73v-124q0 -9 -6.5 -16t-16 -7zM979 222q-23 0 -43 13.5t-28 36.5q-10 29 3 57t42 39q4 1 8 1
q16 0 21 -15q1 -4 1 -7q0 -16 -14 -21q-12 -5 -17.5 -16t-1 -23t15.5 -17.5t23 -0.5q4 1 8 1q15 0 21 -15q1 -3 1 -7q0 -16 -15 -21q-12 -5 -25 -5zM389 589v0q-10 0 -16.5 6.5t-6.5 15.5v82q0 10 6.5 16.5t16 6.5t16 -6.5t6.5 -16.5v-82q0 -9 -6.5 -15.5t-15.5 -6.5z" />
    <glyph glyph-name="fengsvg" unicode="&#xe6a6;" 
d="M564 509h-493q-9 0 -15.5 6.5t-6.5 16t6.5 16t15.5 6.5h493q48 0 81.5 33.5t33.5 80.5t-33.5 81t-81.5 34q-9 0 -15.5 6.5t-6.5 15.5t6.5 15.5t15.5 6.5q66 0 113 -46.5t47 -112.5t-47 -112.5t-113 -46.5zM816 397h-493q-10 0 -16.5 6.5t-6.5 16t6.5 16t16.5 6.5h493
q47 0 80.5 33.5t33.5 81t-33.5 81t-80.5 33.5q-9 0 -15.5 6.5t-6.5 15.5t6.5 16t15.5 7q66 0 112.5 -47t46.5 -112.5t-46.5 -112.5t-112.5 -47zM704 -58q-9 0 -15.5 6.5t-6.5 16t6.5 16t15.5 6.5q47 0 81 33.5t34 80.5t-34 81t-81 34h-493q-10 0 -16.5 6.5t-6.5 15.5
t6.5 15.5t16.5 6.5h493q66 0 112.5 -46.5t46.5 -112.5t-46.5 -112.5t-112.5 -46.5zM572 583h-493q-9 0 -15.5 6.5t-6.5 15.5t6.5 15.5t15.5 6.5h493q9 0 16 -6.5t7 -15.5t-7 -15.5t-16 -6.5zM815 308h-493q-9 0 -16 6.5t-7 15.5t7 15.5t16 6.5h493q9 0 16 -6.5t7 -15.5
t-7 -15.5t-16 -6.5z" />
    <glyph glyph-name="duanxiu" unicode="&#xe6a7;" 
d="M311 508l-104 -126l-117 68l143 248q28 49 82 63.5t103 -13.5l5 -5q37 -38 91 -36.5t93 40.5l2 1q48 28 102.5 13.5t82.5 -63.5l143 -248l-117 -68l-106 125v0v-517h-402v517zM90 428q-10 0 -16.5 6.5t-6.5 15.5q0 6 3 11l144 249q32 56 95.5 73t119.5 -16q11 -6 11 -19
q0 -6 -3 -11q-6 -12 -19 -12q-6 0 -11 3q-41 24 -86 12t-69 -53l-143 -248q-6 -11 -19 -11v0zM207 360q-9 0 -15.5 6.5t-6.5 15.5t5 15l105 127q7 8 17 8t16.5 -6.5t6.5 -16.5q0 -8 -5 -14l-1 -1l-105 -126q-7 -8 -17 -8v0zM207 360q-6 0 -11 3l-118 68q-11 6 -11 19
q0 9 6.5 16t16.5 7q6 0 11 -3l117 -68q11 -7 11 -20q0 -9 -6.5 -15.5t-15.5 -6.5v0zM937 428v0q-13 0 -19 11l-144 248q-23 41 -68.5 53t-85.5 -12q-5 -3 -11 -3q-13 0 -20 12q-3 5 -3 11q0 13 11 19q57 33 120 16t96 -73l143 -249q3 -5 3 -11q0 -9 -6.5 -15.5t-15.5 -6.5z
M820 360v0q-11 0 -18 8l-105 125v0v1q-5 6 -5 14q0 9 6.5 15.5t15.5 6.5q11 0 17 -8h1l105 -125q5 -6 5 -15t-6.5 -15.5t-15.5 -6.5zM820 360v0q-10 0 -16.5 6.5t-6.5 15.5q0 13 11 20l118 68q5 2 11 2q9 0 15.5 -6.5t6.5 -15.5q0 -13 -11 -19l-117 -68q-5 -3 -11 -3z
M505 610q-91 0 -154 63q-7 7 -7 16t6.5 15.5t16 6.5t15.5 -6q52 -52 127 -51q75 2 130 56q6 7 15.5 7t16 -6.5t6.5 -16t-7 -15.5q-67 -68 -160 -69h-5v0zM714 -33h-402v0q-9 0 -15.5 6.5t-6.5 16.5v517q0 9 6.5 16t16 7t16 -7t6.5 -16v-495h357v495q0 9 6.5 16t15.5 7
t15.5 -7t6.5 -16v-517q0 -10 -6.5 -16.5t-15.5 -6.5zM512 684q-62 0 -105 43q-7 7 -7 16t7 15.5t16 6.5t15 -6q31 -31 76 -30t77 33q7 7 16.5 7t16 -6.5t6.5 -16t-7 -15.5q-46 -47 -111 -47z" />
    </font>
</defs>
</svg>
